<svg height="112" viewBox="0 0 314 112" width="314" xmlns="http://www.w3.org/2000/svg"><g fill="#4a7750" fill-rule="evenodd"><path d="m254.4851 32.8525c-4.168 0-8.122.055-12.071-.054-.671-.018-1.526-.591-1.952-1.164-3.993-5.372-7.911-10.801-11.55-16.688 3.655 1.564 7.337 3.068 10.957 4.711 3.419 1.552 6.796 3.201 10.146 4.897 3.164 1.602 5.003 4.036 4.47 8.298m-26.26-1.832c-.596 1.415-1.128 2.077-2.748 2.121-14.469.394-28.935.88-43.402 1.328-.69.021-1.383-.069-2.413-.125.969-6.096 1.906-11.992 2.846-17.888.032-.201.098-.396.138-.596.509-2.583.184-6.39 1.732-7.443 1.966-1.337 5.495-.789 8.273-.441 8.972 1.123 17.912 2.515 26.86 3.833 2.356.347 4.123 1.51 5.125 3.792.487 1.108 1.126 2.212 1.931 3.106 3.386 3.756 3.553 7.812 1.658 12.313m-40.369 56.258c-.386 0-.839-.167-1.392-.557-10.042-7.047-20.116-14.063-30.166-21.098-.278-.195-.469-.509-1.245-1.364 4.439-.267 8.304-.505 12.882-.78-6.387-5.206-12.309-10.038-18.62-15.18 3.635-1.094 6.757-.553 9.318.954 5.762 3.389 11.374 7.095 16.819 10.989 3.313 2.37 6.208 5.325 9.266 8.041.501.442.867 1.043 1.615 1.957-4.307.461-7.99.855-11.673 1.249-.064.338-.127.668-.187 1.006 5.115 4.271 10.229 8.539 15.403 12.858-.605 1.07-1.145 1.925-2.02 1.925m-71.053-50.406c-1.263-3.536-2.385-6.676-3.745-10.485 17.63-13.807 39.366-17.005 62.155-18.748-1.693 7.037-3.217 13.452-4.783 19.857-1.949 7.972-1.966 7.923-10.263 8.151-13.56.373-27.119.815-40.678 1.221-1.101.032-2.205.004-2.686.004m196.746 24.814c-.449-2.43-1.387-5.036-2.892-6.935-1.802-2.273-2.38-4.489-2.271-7.245.161-4.077.097-8.165.021-12.247-.066-3.623-1.624-5.983-4.977-6.325-21.03-2.149-39.809-11.496-59.465-18.114-31.135-10.482-63.01-13.946-95.576-7.737-9.87 1.882-19.2 5.371-28.322 9.522-14.283 6.5-28.7 12.715-42.891 19.408-6.261 2.953-13.04 3.072-19.501 4.806-13.569 3.644-27.14 7.284-40.695 10.981-7.589 2.07-13.194 6.125-14.546 14.553-.346 2.162-1.385 4.213-2.106 6.315v6.126c1.056 3.604 1.897 7.293 3.274 10.769.552 1.395 2.104 2.958 3.509 3.356 6.421 1.818 12.952 3.251 19.969 4.95-1.272-10.852 1.304-19.629 8.701-26.637 5.595-5.301 12.409-7.783 20.055-7.645 14.41.262 31.066 13.2 26.879 35.858 46.845-.944 93.631-1.886 140.749-2.835-1.006-9.643 1.446-17.925 8.06-24.664 5.14-5.239 11.557-8.007 18.864-8.307 8.009-.329 15.093 2.322 20.85 7.914 5.635 5.473 8.584 12.287 8.669 20.614 6.376-1.204 12.319-2.517 18.325-3.399 4.822-.709 9.082-1.937 11.85-6.422 3.193-5.175 4.564-10.718 3.467-16.66"/><path d="m261.2868 99.6012c-2.048-1.63-3.36-2.92-4.91-3.784-.594-.331-2.466.225-2.501.524-.23 1.968-.119 3.976-.119 6.594 2.672-1.183 4.548-2.014 7.53-3.334m-.133-23.531c-2.964-1.166-4.983-1.96-7.478-2.94 0 2.377-.113 3.991.055 5.576.069.646.625 1.453 1.191 1.761.387.21 1.284-.174 1.762-.541 1.278-.981 2.453-2.095 4.47-3.856m-21.312 21.565c1.607-1.965 2.761-3.224 3.717-4.618.385-.562.591-1.501.399-2.119-.129-.412-1.092-.752-1.703-.791-1.671-.107-3.352-.037-5.604-.037 1.054 2.498 1.887 4.473 3.191 7.565m-3.073-11.753c2.25 0 3.954.085 5.647-.021 2.135-.133 2.371-1.4 1.214-2.836-1.1-1.366-2.512-2.482-4.175-4.081-.975 2.519-1.752 4.524-2.686 6.938m26.684 11.767c1.204-3.093 2.01-5.16 2.952-7.58-2.246 0-3.87-.102-5.471.049-.674.063-1.652.531-1.844 1.053-.196.535.258 1.464.677 2.039.951 1.305 2.054 2.499 3.686 4.439m-.121-19.385c-1.581 1.946-2.747 3.338-3.864 4.768-1.112 1.423-.761 2.566.997 2.789 1.823.23 3.699.051 6.063.051-1.092-2.599-1.937-4.611-3.196-7.608m-13.753 24.598c0-2.353.08-4.061-.045-5.754-.042-.565-.511-1.428-.955-1.554-.603-.171-1.494.054-2.041.43-1.401.964-2.68 2.106-4.671 3.711 3.126 1.284 5.196 2.134 7.712 3.167m.001-29.881c-2.647 1.127-4.69 1.997-7.474 3.182 1.814 1.569 2.989 2.697 4.288 3.659.547.406 1.476.786 2.009.586.536-.202 1.061-1.112 1.125-1.758.159-1.597.052-3.221.052-5.669m-21.531 14.142c.774-13.561 11.663-23.502 24.892-22.727 12.811.752 22.995 11.936 22.315 24.506-.709 13.108-11.926 23.309-24.865 22.613-12.875-.693-23.06-11.813-22.342-24.392"/><path d="m64.6953 99.6765c-1.935-1.593-3.263-2.678-4.582-3.774-1.591-1.323-2.651-.811-2.88 1.07-.211 1.743-.045 3.531-.045 5.916 2.602-1.113 4.58-1.96 7.507-3.212m-11.688 3.197c0-2.42.136-4.228-.038-6.005-.174-1.769-1.305-2.198-2.706-1.137-1.444 1.094-2.748 2.373-4.64 4.032 2.789 1.175 4.854 2.044 7.384 3.11m17.031-12.802c-2.416 0-4.138-.114-5.838.031-1.89.16-2.511 1.177-1.281 2.807 1.087 1.44 2.291 2.791 3.9 4.733 1.25-2.939 2.1-4.939 3.219-7.571m-12.849-17.025c0 2.412-.147 4.142.038 5.835.209 1.901 1.277 2.445 2.874 1.158 1.343-1.083 2.627-2.24 4.526-3.869-2.86-1.201-4.911-2.062-7.438-3.124m9.681 5.369c-1.585 1.856-2.752 3.123-3.788 4.489-.366.481-.739 1.383-.526 1.774.305.557 1.122 1.092 1.765 1.153 1.678.158 3.381.053 5.671.053-1.062-2.542-1.926-4.61-3.122-7.469m-21.207-2.339c1.894 1.718 3.108 2.95 4.458 4.01 1.529 1.2 2.666.725 2.853-1.191.171-1.747.036-3.523.036-5.895-2.591 1.085-4.587 1.921-7.347 3.076m-5.466 9.806c2.331 0 4.038.093 5.73-.024 2.025-.14 2.411-1.281 1.269-2.826-1.055-1.428-2.297-2.717-3.98-4.676-1.22 3.042-2.022 5.041-3.019 7.526m3.056 11.421c1.606-1.771 2.811-2.997 3.894-4.321 1.249-1.527.867-2.672-1.116-2.873-1.747-.176-3.526-.036-5.952-.036 1.155 2.629 2.02 4.601 3.174 7.23m12.151-32.958c13.081.214 23.506 11.013 23.317 24.153-.184 12.743-11.28 23.346-24.122 23.05-12.854-.295-23.281-10.99-23.104-23.695.184-13.239 10.846-23.721 23.909-23.508"/></g></svg>