<svg height="168" viewBox="0 0 221 168" width="221" xmlns="http://www.w3.org/2000/svg"><g fill="#4a7750" fill-rule="evenodd"><path d="m124.3738 105.8052c2.866 1.736 5.626 3.667 9.5 3.486-1.657-3.462-3.176-6.636-4.712-9.844-1.638 2.176-3.132 4.159-4.788 6.358m8.08-7.334c.874 1.741 1.431 3.098 2.195 4.324 1.629 2.614 3.21 5.283 5.105 7.698 1.686 2.147 3.366 1.9 4.383-.653 1.102-2.764 1.762-5.704 2.71-8.887-5.2.502-9.688-.233-14.393-2.482m29.197 12.656c-3.38-3.79-5.284-8.139-6.104-12.937-2.488.494-3.984 1.637-4.141 4.172-.063 1.01-.542 1.988-.688 3.001-.418 2.885-.973 5.775-1.071 8.676-.087 2.555 1.38 3.373 3.742 2.522 3.124-1.125 5.635-3.165 8.262-5.434m-3.292 55.878h-29.357c.375-1.694.805-3.378 1.117-5.084 1.303-7.147 3.072-14.257 3.699-21.466.543-6.235-.215-12.586-.422-18.885-.055-1.669-.198-3.335-.303-5.049-2.925.093-5.327-1.042-7.636-2.392-1.967-1.151-3.906-2.357-5.792-3.635-.811-.55-1.454-.639-2.372-.238-16.401 7.149-34.313-4.354-34.51-22.175-.012-1.093-.323-1.796-1.11-2.504-3.391-3.052-5.773-6.781-6.938-11.195-.563-2.135-.8-4.356-1.185-6.538v-.326c.094-.522.236-1.041.274-1.568.541-7.554 3.911-13.56 9.955-18.064.91-.679 1.317-1.323 1.281-2.525-.357-11.94 8.475-22.642 20.274-24.521 2.382-.379 4.831-.338 7.207-.488 2.242-9.822 7.855-16.802 17.704-19.367 11.96-3.115 21.21 1.413 27.992 11.492.35-.16.653-.276.935-.43 12.427-6.788 28.234-1.434 33.912 11.748.468 1.086 1.184 1.348 2.182 1.53 14.899 2.723 23.669 17.258 19.191 31.693-.183.591-.048 1.523.32 2.007 9.942 13.078 5.651 30.802-9.197 37.665-1.074.497-1.464 1.125-1.65 2.279-2.192 13.606-15.756 22.826-29.179 19.725-3.023-.699-5.89-2.068-8.369-2.962-2.682 2.444-5.414 5.014-8.238 7.478-1.767 1.541-2.575 3.373-2.951 5.705-1.282 7.946-1.859 15.825.137 23.762 1.19 4.731 2.031 9.549 3.029 14.328"/><path d="m51.072 105.8052c2.866 1.736 5.626 3.667 9.499 3.486-1.656-3.462-3.175-6.636-4.711-9.844-1.638 2.176-3.132 4.159-4.788 6.358m8.08-7.334c.874 1.741 1.431 3.098 2.195 4.324 1.629 2.614 3.21 5.283 5.105 7.698 1.686 2.147 3.366 1.9 4.383-.653 1.102-2.764 1.762-5.704 2.71-8.887-5.2.502-9.688-.233-14.393-2.482m29.197 12.656c-3.38-3.79-5.284-8.139-6.104-12.937-2.488.494-3.984 1.637-4.141 4.172-.063 1.01-.542 1.988-.688 3.001-.418 2.885-.973 5.775-1.071 8.676-.087 2.555 1.38 3.373 3.742 2.522 3.124-1.125 5.635-3.165 8.262-5.434m-3.292 55.878h-29.357c.375-1.694.805-3.378 1.117-5.084 1.303-7.147 3.072-14.257 3.699-21.466.543-6.235-.215-12.586-.422-18.885-.055-1.669-.198-3.335-.303-5.049-2.925.093-5.327-1.042-7.636-2.392-1.967-1.151-3.906-2.357-5.792-3.635-.811-.55-1.454-.639-2.372-.238-16.401 7.149-34.313-4.354-34.51-22.175-.012-1.093-.323-1.796-1.11-2.504-3.391-3.052-5.773-6.781-6.938-11.195-.563-2.135-.8-4.356-1.185-6.538v-.326c.094-.522.236-1.041.274-1.568.541-7.554 3.911-13.56 9.955-18.064.91-.679 1.317-1.323 1.281-2.525-.357-11.94 8.475-22.642 20.274-24.521 2.382-.379 4.831-.338 7.207-.488 2.242-9.822 7.855-16.802 17.704-19.367 11.96-3.115 21.21 1.413 27.992 11.492.35-.16.653-.276.935-.43 12.427-6.788 28.234-1.434 33.912 11.748.468 1.086 1.184 1.348 2.182 1.53 14.899 2.723 23.669 17.258 19.191 31.693-.184.591-.048 1.523.32 2.007 9.942 13.078 5.651 30.802-9.197 37.665-1.074.497-1.464 1.125-1.65 2.279-2.192 13.606-15.756 22.826-29.179 19.725-3.023-.699-5.89-2.068-8.369-2.962-2.682 2.444-5.414 5.014-8.238 7.478-1.767 1.541-2.575 3.373-2.951 5.705-1.282 7.946-1.859 15.825.137 23.762 1.19 4.731 2.031 9.549 3.029 14.328"/></g></svg>