<svg height="89" viewBox="0 0 155 89" width="155" xmlns="http://www.w3.org/2000/svg"><g fill="#ffd34b" fill-rule="evenodd" transform="translate(0 .682)"><path d="m122.6498 72.1257v2.228h-9.304c.028-2.952 1.727-4.094 3.9-5.459 1.114-.724 2.647-1.421 2.674-2.869 0-.975-.669-1.727-1.699-1.727-1.56 0-2.061 1.504-2.006 2.618h-2.841c-.028-2.869 1.616-4.847 5.042-4.847 2.312 0 4.346 1.282 4.346 3.761 0 1.755-1.003 2.73-2.257 3.565-1.254.808-2.73 1.449-3.677 2.73zm-27.794-5.3c-10.079 0-16.007-7.525-16.007-16.919 0-9.668 5.928-17.193 16.007-17.193 10.078 0 16.007 7.525 16.007 17.193 0 9.394-5.929 16.919-16.007 16.919zm-33.791 0c-10.078 0-16.007-7.525-16.007-16.919 0-9.668 5.929-17.193 16.007-17.193 7.16 0 13.18 4.196 14.047 11.72h-6.932c-.456-3.237-3.557-5.7-7.115-5.7-6.429 0-8.847 5.472-8.847 11.173 0 5.427 2.418 10.899 8.847 10.899 4.379 0 6.842-3.01 7.389-7.296h6.931c-.729 8.117-6.338 13.316-14.32 13.316zm70.034-26.956c-.342 0-.68.006-1.015.023 1.445-5.862-.123-12.311-4.704-16.891-4.635-4.635-11.19-6.186-17.109-4.649-6.051-10.781-17.59-18.067-30.833-18.067-13.242 0-24.782 7.286-30.833 18.067-5.919-1.537-12.471.014-17.106 4.649-4.577 4.577-6.145 11.024-4.709 16.885-.278-.011-.559-.017-.84-.017-13.136 0-23.787 10.648-23.787 23.788 0 13.139 10.651 23.787 23.787 23.787 1.387 0 2.743-.117 4.065-.35.452.224.963.35 1.502.35h101.582c1.413 0 2.8-.123 4.147-.361 11.159-1.961 19.64-11.703 19.64-23.426 0-13.14-10.651-23.788-23.787-23.788z"/><path d="m94.8557 38.7336c-6.43 0-8.847 5.473-8.847 11.173 0 5.427 2.417 10.899 8.847 10.899s8.847-5.472 8.847-10.899c0-5.7-2.417-11.173-8.847-11.173"/></g></svg>