<svg height="206" viewBox="0 0 250 206" width="250" xmlns="http://www.w3.org/2000/svg"><g fill="none" fill-rule="evenodd"><g fill="#355b38"><path d="m190.7157 51.1769h-24.153l-3.235 41.111h27.388z"/><path d="m158.0425 159.5795-1.947 24.743h34.62v-24.743z"/><path d="m190.7157 108.5459h-28.662l-2.876 36.536h31.538z"/><path d="m223.3882 159.5795h-32.673v24.743h34.621z"/><path d="m190.7157 145.0817h31.537l-2.875-36.536h-28.662z"/><path d="m190.7157 92.2883h27.388l-3.235-41.111h-24.153z"/><path d="m190.7157 40.5536h-23.323l-.83 10.623h24.153z"/><path d="m214.8687 51.1769-.831-10.623h-23.322v10.623z"/><path d="m190.7157 92.2883h-27.388l-1.274 16.258h28.662z"/><path d="m190.7157 108.5459h28.662l-1.274-16.258h-27.388z"/><path d="m190.7157 145.0817h-31.538l-1.135 14.498h32.673z"/><path d="m190.7157 159.5795h32.673l-1.136-14.498h-31.537z"/><path d="m139.0812 117.2512h-21.945l-2.201 27.972h24.146z"/><path d="m114.0661 156.3219-1.491 18.945h26.506v-18.945z"/><path d="m139.0812 73.3276h-18.492l-2.477 31.477h20.969z"/><path d="m139.0812 145.223h24.145l-2.201-27.972h-21.944z"/><path d="m164.0963 156.3219h-25.015v18.945h26.506z"/><path d="m139.0812 104.8043h20.969l-2.477-31.477h-18.492z"/><path d="m139.0812 64.4543h-17.799l-.693 8.873h18.492z"/><path d="m157.5728 73.3276-.693-8.873h-17.799v8.873z"/><path d="m139.0812 104.8043h-20.969l-.976 12.447h21.945z"/><path d="m139.0812 117.2512h21.944l-.975-12.447h-20.969z"/><path d="m139.0812 145.223h-24.146l-.869 11.099h25.015z"/><path d="m139.0812 156.3219h25.015l-.87-11.099h-24.145z"/></g><g transform="translate(0 .283)"><path d="m154.8834.7174c15.161-3.187 34.378 4.875 41.963 24.387 1.195 3.074 1.091 6.826 1.154217 10.186.019783 1.067-1.347217 1.482-1.948217.6-5.975-8.773-17.346-13.636-28.205-13.698-15.48-.089-28.015 9.178-43.082 10.657-7.263.714-14.437.024-21.301-2.56-4.676-1.76-8.392-5.418-11.086-9.593-.534-.827.231-1.862 1.183-1.613 5.22 1.363 16.589 1.348 30.949-3.885 10.79-3.932 18.942-12.077 30.373-14.481" fill="#cfcfcf"/><path d="m77.2335 31.8191c-6.871 10.951 5.748 27.429 24.338 27.135 8.421-.132 17.046-4.149 25.412-1.785 1.821.514 7.036 3.139 7.708 2.682 2.242-2.841-4.557-7.755-6.437-8.858-12.228-7.179-25.355-1.814-36.632-6.658-2.03-.873-16.363-9.369-14.389-12.516" fill="#cfcfcf"/><path d="m181.3381 186.4699v-61.499h-112.628l112.145 61.499z" fill="#4a7750"/><path d="m64.4907 186.4699h116.364l-112.145-61.499h-4.219z" fill="#4a7750"/><path d="m71.3638 136.2464v11.274h39.288l-20.067-11.274z" fill="#fff"/><path d="m174.4648 136.2464h-83.88l20.067 11.274h63.813z" fill="#fff"/><path d="m70.6763 157.7703v11.275h78.285l-20.066-11.275z" fill="#fff"/><path d="m173.7773 157.7703h-44.882l20.066 11.275h24.816z" fill="#fff"/><path d="m139.3141 124.9709h-67.649v-14.121c0-2.391 1.938-4.328 4.329-4.328h58.992c2.39 0 4.328 1.937 4.328 4.328z" fill="#4a7750"/><path d="m77.815 120.871h13.561v-9.225h-13.561z" fill="#fff"/><path d="m98.452 120.871h13.562v-9.225h-13.562z" fill="#fff"/><path d="m119.09 120.871h13.562v-9.225h-13.562z" fill="#fff"/><path d="m91.9439 138.7711h-19.004v6.276h30.661z" fill="#4a7750"/><path d="m128.6395 159.7738h-56.424v6.276h68.081z" fill="#4a7750"/><path d="m191.2116 185.2614s-1.817-3.634-1.817-7.268c-13.176 4.94-15.902-9.522-24.414-16.334-1.376.276-2.596.807-3.369 1.579l-4.996 4.997-8.45 8.45c-2.199 2.217-7.94 2.434-10.738.454l-.127-.109c-2.144-1.508-6.015-1.745-8.704-.763-.708.253-1.326.6-1.817 1.016l-1.109.947c-1.998 1.708-6.305 2.124-9.285.907l-1.199-.49-1.999-.817h-.017l-2.799-1.145c-2.78-1.145-6.759-.872-8.921.617l-5.815 3.997-17.643 12.138c.989-.535 80.536-.346 131.068-.17-5.236-5.691-10.924-9.737-17.849-8.006" fill="#5a5a5a"/><path d="m249.9194 193.4373-11.901-10.193c-1.6-1.38-4.779-1.962-7.596-1.399l-1.49.273c-2.616.526-5.559.053-7.25-1.126l-7.74-5.435c-1.272-.907-3.18-1.343-5.07-1.343-1.889 0-3.779.436-5.051 1.326-2.453 1.69-7.159 1.799-9.83.2l-22.004-13.156c-1.855-1.121-4.661-1.397-7.007-.924 8.512 6.811 11.239 21.273 24.414 16.333 0 3.634 1.817 7.268 1.817 7.268 6.926-1.731 12.613 2.315 17.85 8.006 6.082.022 11.747.042 16.8.062 14.555.073 24.058.108 24.058.108" fill="#484848"/><path d="m41.5463 173.289c.002.148.004.301.004.456 0-.155-.002-.308-.004-.456zm-.014-.508c.005.135.009.278.012.425-.003-.147-.007-.291-.012-.425zm-.023-.402c.009.122.016.249.022.387-.006-.137-.013-.265-.022-.387zm-.038-.39c.013.096.023.205.032.322-.009-.117-.019-.226-.032-.322zm.07 2.809c.003-.153.005-.306.007-.461-.002.155-.005.308-.007.461zm.007-.536c.002-.145.002-.29.002-.432 0 .142 0 .287-.002.432zm-.19-2.728c.022.039.041.09.058.156-.017-.066-.037-.117-.058-.156zm.066.191c.015.066.029.142.042.229-.013-.087-.027-.163-.042-.229zm-6.963 1.388c.181.247.351.481.517.708zm7.149-3.856c-1.967-4.424-2.67-2.777-6.092-6.768-2.677-7.586-5.915-3.611-9.476-6.769l-3.922.903 4.034 3.722-.45 3.836 2.03 5.076 3.384 2.03-3.045 3.723 2.887 1.698c1.49-.221 3.617-.497 5.579-.744.242.333.495.681.777 1.069l4.124.515c.012-.214.072-1.365.098-2.609-.003.141-.006.282-.01.419.127-.015 3.338-.336 3.466-.348 0 0 .338-2.708-3.384-5.753z" fill="#3a3a3a"/><path d="m31.1183 171.287-3.384-2.03-2.03-5.076 1.997-3.813-1.598-4.596-4.461.964-.846 2.368-2.284.592-2.454 1.946-1.777 2.962-3.129.169-1.354 3.469-2.454.423-2.623 3.637c1.45 1.934 2.425 4.047 3.723 3.723 1.354-.338 3.743 1.661 3.743 1.661s4.718 3.077 5.733 2.401c.93-.621 11.428-3.139 13.039-3.379l-2.886-1.698z" fill="#606060"/><g fill="#4a7750"><path d="m46.5709 175.6869-.213.734c-5.467 3.076-31.353 17.636-36.597 20.587h-.39c-6.156-21.432-5.087-17.712-6.125-21.321z"/><path d="m46.3581 176.4209c-.759 2.631.172-.603-5.916 20.587h-30.682c5.259-2.958 31.147-17.519 36.598-20.587"/><path d="m46.5709 175.6869c-.274.942-.114.39-.781 2.708h-41.765l-.779-2.708z"/><path d="m.6487 172.7536c-.262.526-.214.865-.214 1.805h48.508c0-.935.048-1.278-.214-1.805z"/><path d="m.4346 174.5583v.451c0 1.122.91 2.031 2.031 2.031h44.446c1.122 0 2.031-.909 2.031-2.031v-.451z"/><path d="m16.3196 196.4725-1.452.205-2.68-18.989 1.452-.206z"/><path d="m34.6363 196.0209 1.452.205 2.68-18.989-1.452-.204z"/><path d="m24.957 196.669h1.269v-19.403h-1.269z"/><path d="m46.5166 199.4439c-2.324 0-2.328-3.519 0-3.519 2.325 0 2.329 3.519 0 3.519m-2.913-3.113h-35.921c-1.9 0-1.904 2.876 0 2.876h36.002c1.581 2.927 6.047 1.811 6.047-1.523 0-3.435-4.686-4.457-6.128-1.353"/><path d="m9.0938 199.2071c1.423-2.784 5.404-2.778 6.823 0z"/><path d="m42.3135 199.2071h-6.823c1.423-2.784 5.404-2.778 6.823 0"/><path d="m15.3254 200.9562c0 2.118-1.717 3.835-3.836 3.835-2.117 0-3.835-1.717-3.835-3.835 0-2.119 1.718-3.836 3.835-3.836 2.119 0 3.836 1.717 3.836 3.836"/><path d="m13.7465 200.9562c0 1.246-1.01 2.256-2.257 2.256-1.246 0-2.256-1.01-2.256-2.256 0-2.981 4.513-2.985 4.513 0"/><path d="m41.7227 200.9562c0 2.118-1.717 3.835-3.836 3.835-2.118 0-3.835-1.717-3.835-3.835 0-2.119 1.717-3.836 3.835-3.836 2.119 0 3.836 1.717 3.836 3.836"/><path d="m37.8871 203.2122c-2.981 0-2.984-4.512 0-4.512 2.981 0 2.984 4.512 0 4.512"/><path d="m10.5086 181.6977c-.381 0-.718-.274-.786-.661l-.208-1.181c-.078-.434.213-.848.647-.926.432-.076.85.215.926.649l.209 1.18c.077.435-.214.849-.649.927-.046.007-.093.012-.139.012"/><path d="m11.4072 186.7736c-.381 0-.718-.273-.786-.66l-.449-2.539c-.077-.434.213-.848.648-.926.432-.076.85.214.926.648l.449 2.538c.077.436-.214.85-.649.927-.046.008-.093.012-.139.012m.898 5.077c-.381 0-.718-.273-.786-.66l-.449-2.538c-.077-.435.214-.85.648-.927.435-.076.85.214.926.648l.449 2.538c.077.436-.213.85-.648.928-.047.007-.094.011-.14.011"/><path d="m12.9639 195.5695c-.38 0-.717-.273-.786-.66l-.209-1.18c-.077-.435.212-.85.647-.927.441-.072.849.214.926.648l.21 1.18c.077.435-.213.849-.647.927-.048.008-.095.012-.141.012"/><path d="m23.2221 182.7807c-.442 0-.799-.358-.799-.799v-2.398c0-.442.357-.799.799-.799s.799.357.799.799v2.398c0 .441-.357.799-.799.799m0 4.796c-.442 0-.799-.358-.799-.799v-2.398c0-.442.357-.8.799-.8s.799.358.799.8v2.398c0 .441-.357.799-.799.799m0 4.796c-.442 0-.799-.358-.799-.8v-2.398c0-.441.357-.799.799-.799s.799.358.799.799v2.398c0 .442-.357.8-.799.8m0 3.463c-.442 0-.799-.357-.799-.799v-1.066c0-.441.357-.799.799-.799s.799.358.799.799v1.066c0 .442-.357.799-.799.799"/><path d="m34.7775 182.5241c-.02 0-.038-.001-.058-.003-.44-.03-.772-.413-.74-.853.103-1.444.168-2.403.168-2.403.031-.441.401-.778.851-.745.441.03.774.411.744.851 0 0-.065.962-.169 2.41-.029.422-.381.743-.796.743zm-.362 4.797c-.02 0-.041-.001-.063-.002-.439-.035-.768-.42-.735-.86l.185-2.396c.033-.44.417-.771.857-.736.44.033.771.417.737.857l-.184 2.399c-.033.42-.384.738-.797.738zm-.41 4.791c-.025 0-.051-.001-.077-.004-.439-.042-.761-.432-.719-.872.07-.74.142-1.549.213-2.387.036-.439.43-.764.863-.729.44.039.766.425.729.865-.071.842-.143 1.658-.214 2.404-.04.413-.388.723-.795.723zm-.526 3.724c-.439 0-.796-.355-.7990167-.794-.0009833-.156.0430167-.3.1180167-.422.026-.115.078-.389.157-1.016.056-.437.464-.747.893-.692.439.056.748.456.693.893-.166 1.307-.256 2.027-1.057 2.031z"/></g><path d="m93.3768 173.289c.003.148.004.301.004.456 0-.155-.001-.308-.004-.456zm-.014-.508c.005.135.009.278.012.425-.003-.147-.007-.291-.012-.425zm-.023-.402c.009.122.017.249.022.387-.005-.137-.013-.265-.022-.387zm-.038-.39c.013.096.023.205.033.322-.01-.117-.02-.226-.033-.322zm.07 2.809c.003-.153.006-.306.007-.461-.001.155-.004.308-.007.461zm.008-.536c.001-.145.002-.29.001-.432.001.142 0 .287-.001.432zm-.19-2.728c.021.039.04.09.058.156-.018-.066-.037-.117-.058-.156zm.065.191c.015.066.03.142.042.229-.012-.087-.027-.163-.042-.229zm-6.962 1.388c.18.247.35.481.516.708zm7.148-3.856c-1.966-4.424-2.67-2.777-6.092-6.768-2.676-7.586-5.915-3.611-9.476-6.769l-3.922.903 4.035 3.722-.451 3.836 2.03 5.076 3.385 2.03-3.046 3.723 2.887 1.698c1.49-.221 3.617-.497 5.579-.744.242.333.496.681.777 1.069l4.125.515c.011-.214.071-1.365.097-2.609-.002.141-.006.282-.01.419.127-.015 3.338-.336 3.466-.348 0 0 .338-2.708-3.384-5.753z" fill="#3a3a3a"/><path d="m82.9496 171.287-3.385-2.03-2.03-5.076 1.998-3.813-1.599-4.596-4.46.964-.847 2.368-2.283.592-2.454 1.946-1.777 2.962-3.13.169-1.354 3.469-2.453.423-2.623 3.637c1.45 1.934 2.424 4.047 3.722 3.723 1.354-.338 3.743 1.661 3.743 1.661s4.718 3.077 5.733 2.401c.93-.621 11.428-3.139 13.04-3.379l-2.887-1.698z" fill="#606060"/><path d="m98.4016 175.6869-.213.734c-5.467 3.076-31.353 17.636-36.597 20.587h-.39c-6.156-21.432-5.087-17.712-6.124-21.321z" fill="#4a7750"/><path d="m98.1887 176.4209c-.759 2.631.171-.603-5.916 20.587h-30.681c5.258-2.958 31.146-17.519 36.597-20.587" fill="#4a7750"/><path d="m98.4016 175.6869c-.273.942-.114.39-.781 2.708h-41.765l-.778-2.708z" fill="#4a7750"/><path d="m52.4793 172.7536c-.261.526-.214.865-.214 1.805h48.508c0-.935.048-1.278-.214-1.805z" fill="#4a7750"/><path d="m52.2653 174.5583v.451c0 1.122.91 2.031 2.031 2.031h44.446c1.122 0 2.031-.909 2.031-2.031v-.451z" fill="#4a7750"/><path d="m68.1508 196.4725-1.452.205-2.68-18.989 1.452-.206z" fill="#4a7750"/><path d="m86.4675 196.0209 1.452.205 2.68-18.989-1.452-.204z" fill="#4a7750"/><path d="m76.787 196.669h1.269v-19.403h-1.269z" fill="#4a7750"/><path d="m60.9244 199.2071c1.423-2.784 5.404-2.778 6.823 0z" fill="#4a7750"/><path d="m94.1442 199.2071h-6.822c1.422-2.784 5.403-2.778 6.822 0" fill="#4a7750"/><path d="m67.1561 200.9562c0 2.118-1.717 3.835-3.835 3.835s-3.836-1.717-3.836-3.835c0-2.119 1.718-3.836 3.836-3.836s3.835 1.717 3.835 3.836" fill="#4a7750"/><path d="m65.5772 200.9562c0 1.246-1.01 2.256-2.256 2.256-1.247 0-2.257-1.01-2.257-2.256 0-2.981 4.513-2.985 4.513 0" fill="#4a7750"/><path d="m93.5533 200.9562c0 2.118-1.717 3.835-3.836 3.835-2.118 0-3.835-1.717-3.835-3.835 0-2.119 1.717-3.836 3.835-3.836 2.119 0 3.836 1.717 3.836 3.836" fill="#4a7750"/><path d="m89.7178 203.2122c-2.981 0-2.984-4.512 0-4.512 2.981 0 2.984 4.512 0 4.512" fill="#4a7750"/><path d="m62.3392 181.6977c-.381 0-.718-.274-.786-.661l-.208-1.181c-.077-.434.213-.848.647-.926.432-.076.85.215.926.649l.209 1.18c.077.435-.213.849-.648.927-.047.007-.094.012-.14.012" fill="#4a7750"/><path d="m64.795 195.5695c-.381 0-.717-.273-.786-.66l-.209-1.18c-.077-.435.212-.85.647-.927.441-.072.849.214.927.648l.209 1.18c.077.435-.213.849-.647.927-.048.008-.095.012-.141.012" fill="#4a7750"/><path d="m75.0528 182.7807c-.442 0-.799-.358-.799-.799v-2.398c0-.442.357-.799.799-.799s.799.357.799.799v2.398c0 .441-.357.799-.799.799m0 4.796c-.442 0-.799-.358-.799-.799v-2.398c0-.442.357-.8.799-.8s.799.358.799.8v2.398c0 .441-.357.799-.799.799m0 4.796c-.442 0-.799-.358-.799-.8v-2.398c0-.441.357-.799.799-.799s.799.358.799.799v2.398c0 .442-.357.8-.799.8m0 3.463c-.442 0-.799-.357-.799-.799v-1.066c0-.441.357-.799.799-.799s.799.358.799.799v1.066c0 .442-.357.799-.799.799" fill="#4a7750"/><path d="m46.709 198.387h12.473v-1.454h-12.473z" fill="#4a7750"/></g></g></svg>