<svg height="305" viewBox="0 0 723 305" width="723" xmlns="http://www.w3.org/2000/svg"><g fill="none" fill-rule="evenodd"><path d="m722.6313 162.873c0 18.328-13.26 33.559-30.705 36.624-2.106.372-4.275.565-6.484.565h-158.811c-.843 0-1.64-.197-2.348-.547-2.066.363-4.186.547-6.354.547-20.538 0-37.189-16.647-37.189-37.189 0-20.541 16.651-37.189 37.189-37.189.439 0 .878.009 1.312.027-2.245-9.164.207-19.242 7.363-26.398 7.246-7.246 17.49-9.671 26.743-7.269 9.46-16.853 27.501-28.244 48.204-28.244s38.744 11.391 48.203 28.244c9.254-2.402 19.502.023 26.748 7.269 7.161 7.16 9.612 17.243 7.354 26.407.524-.027 1.053-.036 1.586-.036 20.537 0 37.189 16.648 37.189 37.189" fill="#cfcfcf"/><path d="m242.5646 231.0042c0 18.328-13.26 33.559-30.705 36.624-2.106.372-4.275.565-6.484.565h-158.811c-.843 0-1.64-.197-2.348-.547-2.066.363-4.186.547-6.354.547-20.538 0-37.189-16.647-37.189-37.189s16.651-37.189 37.189-37.189c.439 0 .878.009 1.312.027-2.245-9.164.207-19.242 7.363-26.398 7.246-7.246 17.49-9.671 26.743-7.269 9.46-16.853 27.501-28.244 48.204-28.244s38.744 11.391 48.203 28.244c9.254-2.402 19.502.023 26.748 7.269 7.161 7.16 9.612 17.243 7.354 26.407.524-.027 1.053-.036 1.586-.036 20.537 0 37.189 16.647 37.189 37.189" fill="#cfcfcf"/><g fill="#4a7750"><path d="m521.1602 250.9118v7.774h-32.459c.098-10.301 6.024-14.285 13.605-19.047 3.887-2.526 9.234-4.955 9.33-10.01 0-3.4-2.333-6.024-5.929-6.024-5.44 0-7.191 5.248-6.996 9.134h-9.912c-.098-10.009 5.635-16.909 17.589-16.909 8.066 0 15.162 4.47 15.162 13.12 0 6.122-3.5 9.523-7.872 12.439-4.375 2.818-9.524 5.053-12.829 9.523zm-96.968-18.49c-35.162 0-55.846-26.253-55.846-59.028 0-33.73 20.684-59.982 55.846-59.982s55.845 26.252 55.845 59.982c0 32.775-20.683 59.028-55.845 59.028zm-117.888 0c-35.163 0-55.846-26.253-55.846-59.028 0-33.73 20.683-59.982 55.846-59.982 24.979 0 45.981 14.638 49.004 40.889h-24.183c-1.59-11.296-12.409-19.888-24.821-19.888-22.432 0-30.867 19.093-30.867 38.981 0 18.934 8.435 38.025 30.867 38.025 15.275 0 23.867-10.5 25.775-25.456h24.183c-2.545 28.321-22.113 46.459-49.958 46.459zm244.331-94.045c-1.19 0-2.37.02-3.54.08 5.04-20.45-.43-42.95-16.41-58.93-16.17-16.17-39.04-21.58-59.69-16.22-21.11-37.61-61.37-63.03-107.57-63.03s-86.46 25.42-107.569 63.03c-20.651-5.36-43.511.05-59.681 16.22-15.97 15.97-21.44 38.46-16.43 58.91-.97-.04-1.95-.06-2.929-.06-45.831 0-82.991 37.15-82.991 82.99s37.16 82.99 82.991 82.99c4.839 0 9.569-.41 14.179-1.22 1.58.78 3.361 1.22 5.24 1.22h354.4c4.931 0 9.77-.43 14.471-1.26 38.929-6.84 68.519-40.83 68.519-81.73 0-45.84-37.16-82.99-82.99-82.99z"/><path d="m424.1919 134.4131c-22.432 0-30.866 19.093-30.866 38.981 0 18.934 8.434 38.025 30.866 38.025 22.435 0 30.866-19.091 30.866-38.025 0-19.888-8.431-38.981-30.866-38.981"/></g></g></svg>