<svg version="1.1" id="Layer_1" xmlns="http://www.w3.org/2000/svg" xmlns:xlink="http://www.w3.org/1999/xlink" x="0px" y="0px" width="243px" height="102px" viewBox="0 0 243 102" enable-background="new 0 0 243 102" xml:space="preserve"> <g transform="translate(-4 -2.318)"> <path fill="#FFD34B" d="M70.853,65.724v6.563c0,2.946,8.265,5.336,18.458,5.336c10.194,0,18.458-2.39,18.458-5.336v-6.563H70.853z" /> <g> <path fill="#E5BE44" d="M75.432,65.724h-2.163v9.015c0.003,0.063,0.004,0.127,0.008,0.19c0.616,0.312,1.341,0.603,2.155,0.871 V65.724z"/> <path fill="#E5BE44" d="M76.513,65.724h-0.648v10.213c0.21,0.064,0.426,0.128,0.648,0.189V65.724z"/> <path fill="#E5BE44" d="M78.027,65.724h-0.973V76.27c0.312,0.08,0.642,0.155,0.973,0.229V65.724z"/> <path fill="#E5BE44" d="M85.435,65.724h-2.487v11.568c0.803,0.086,1.637,0.152,2.487,0.205V65.724z"/> <path fill="#E5BE44" d="M87.382,65.724h-1.026V77.55c0.337,0.015,0.682,0.025,1.026,0.037V65.724z"/> <path fill="#E5BE44" d="M92.52,65.724h-0.865v11.854c0.291-0.011,0.579-0.023,0.865-0.039V65.724z"/> <path fill="#E5BE44" d="M93.979,65.724h-0.811v11.779c0.272-0.019,0.543-0.035,0.811-0.056V65.724z"/> <path fill="#E5BE44" d="M96.034,65.724h-1.676v11.693c0.571-0.049,1.129-0.104,1.676-0.164V65.724z"/> <path fill="#E5BE44" d="M104.091,65.724h-1.838v10.363c0.664-0.189,1.278-0.394,1.838-0.61V65.724z"/> <path fill="#E5BE44" d="M104.416,65.724v9.624c2.109-0.866,3.352-1.921,3.352-3.062v-6.563H104.416z"/> </g> <path fill="#FFD34B" d="M107.769,65.724c0,2.949-8.264,5.337-18.457,5.337c-10.194,0-18.459-2.388-18.459-5.337 c0-2.946,8.265-5.336,18.459-5.336C99.504,60.388,107.769,62.778,107.769,65.724"/> <path fill="#F0C746" d="M88.064,66.091c-2.465-1.412-4.659-3.174-6.552-5.202c-6.295,0.849-10.66,2.694-10.66,4.835 c0,2.949,8.265,5.337,18.459,5.337c5.2,0,9.895-0.622,13.25-1.624C97.531,69.369,92.588,68.688,88.064,66.091"/> <path fill="#FFFFFF" d="M89.311,61.814c-8.413,0-14.064,2.021-14.064,3.91c0,1.891,5.651,3.912,14.064,3.912 c8.412,0,14.063-2.021,14.063-3.912C103.374,63.836,97.723,61.814,89.311,61.814 M89.311,70.07c-8.13,0-14.497-1.909-14.497-4.346 c0-2.435,6.367-4.345,14.497-4.345c8.129,0,14.495,1.91,14.495,4.345C103.806,68.161,97.44,70.07,89.311,70.07"/> <path fill="#FFD34B" d="M73.196,58.098v6.563c0,2.946,8.265,5.337,18.458,5.337c10.194,0,18.458-2.391,18.458-5.337v-6.563H73.196z "/> <path fill="#E5BE44" d="M77.775,58.098h-2.163v9.015c0.003,0.063,0.004,0.127,0.008,0.191c0.616,0.311,1.341,0.602,2.155,0.869 V58.098z"/> <path fill="#E5BE44" d="M78.855,58.098h-0.648v10.213c0.21,0.065,0.426,0.128,0.648,0.19V58.098z"/> <path fill="#E5BE44" d="M80.37,58.098h-0.973v10.546c0.312,0.08,0.642,0.154,0.973,0.23V58.098z"/> <path fill="#E5BE44" d="M87.778,58.098h-2.487v11.569c0.803,0.084,1.637,0.151,2.487,0.203V58.098z"/> <path fill="#E5BE44" d="M89.725,58.098h-1.026v11.825c0.337,0.016,0.682,0.026,1.026,0.037V58.098z"/> <path fill="#E5BE44" d="M94.863,58.098h-0.865v11.854c0.291-0.011,0.579-0.024,0.865-0.039V58.098z"/> <path fill="#E5BE44" d="M96.323,58.098h-0.811v11.78c0.272-0.02,0.543-0.037,0.811-0.057V58.098z"/> <path fill="#E5BE44" d="M98.377,58.098h-1.676v11.692c0.571-0.048,1.129-0.103,1.676-0.164V58.098z"/> <path fill="#E5BE44" d="M106.435,58.098h-1.838v10.362c0.664-0.188,1.278-0.393,1.838-0.609V58.098z"/> <path fill="#E5BE44" d="M106.759,58.098v9.624c2.109-0.866,3.352-1.922,3.352-3.062v-6.563H106.759z"/> <path fill="#FFD34B" d="M110.112,58.098c0,2.948-8.264,5.337-18.457,5.337c-10.194,0-18.459-2.389-18.459-5.337 c0-2.946,8.265-5.335,18.459-5.335C101.848,52.763,110.112,55.152,110.112,58.098"/> <path fill="#F0C746" d="M90.408,58.466c-2.465-1.413-4.659-3.174-6.552-5.203c-6.295,0.849-10.66,2.695-10.66,4.835 c0,2.948,8.265,5.337,18.459,5.337c5.2,0,9.895-0.622,13.25-1.624C99.875,61.744,94.932,61.062,90.408,58.466"/> <path fill="#FFFFFF" d="M91.654,54.187c-8.413,0-14.065,2.022-14.065,3.91c0,1.891,5.652,3.913,14.065,3.913 c8.412,0,14.063-2.022,14.063-3.913C105.717,56.21,100.066,54.187,91.654,54.187 M91.654,62.443c-8.13,0-14.497-1.907-14.497-4.346 c0-2.434,6.367-4.344,14.497-4.344c8.129,0,14.495,1.91,14.495,4.344C106.149,60.536,99.783,62.443,91.654,62.443"/> <path fill="#FFD34B" d="M68.924,53.332v6.563c0,2.946,8.265,5.336,18.458,5.336c10.194,0,18.458-2.39,18.458-5.336v-6.563H68.924z" /> <path fill="#E5BE44" d="M73.502,53.332h-2.163v9.015c0.003,0.063,0.004,0.127,0.008,0.191c0.616,0.311,1.341,0.602,2.155,0.869 V53.332z"/> <path fill="#E5BE44" d="M74.583,53.332h-0.648v10.212c0.21,0.065,0.426,0.129,0.648,0.19V53.332z"/> <path fill="#E5BE44" d="M76.098,53.332h-0.973v10.546c0.312,0.08,0.642,0.154,0.973,0.229V53.332z"/> <path fill="#E5BE44" d="M83.506,53.332h-2.487v11.569c0.803,0.085,1.637,0.152,2.487,0.204V53.332z"/> <path fill="#E5BE44" d="M85.453,53.332h-1.026v11.826c0.337,0.016,0.682,0.026,1.026,0.037V53.332z"/> <path fill="#E5BE44" d="M90.59,53.332h-0.865v11.854c0.291-0.011,0.579-0.024,0.865-0.039V53.332z"/> <path fill="#E5BE44" d="M92.051,53.332H91.24v11.78c0.272-0.019,0.543-0.036,0.811-0.056V53.332z"/> <path fill="#E5BE44" d="M94.105,53.332h-1.676v11.693c0.571-0.048,1.129-0.104,1.676-0.164V53.332z"/> <path fill="#E5BE44" d="M102.162,53.332h-1.838v10.362c0.664-0.188,1.278-0.392,1.838-0.608V53.332z"/> <path fill="#E5BE44" d="M102.487,53.332v9.625c2.109-0.866,3.352-1.922,3.352-3.062v-6.563H102.487z"/> <path fill="#FFD34B" d="M105.839,53.332c0,2.949-8.264,5.337-18.457,5.337c-10.194,0-18.459-2.389-18.459-5.337 c0-2.946,8.265-5.335,18.459-5.335C97.576,47.997,105.839,50.386,105.839,53.332"/> <path fill="#F0C746" d="M86.136,53.7c-2.465-1.413-4.659-3.174-6.552-5.203c-6.295,0.849-10.66,2.695-10.66,4.835 c0,2.949,8.265,5.337,18.459,5.337c5.2,0,9.895-0.622,13.25-1.624C95.603,56.977,90.66,56.297,86.136,53.7"/> <path fill="#FFFFFF" d="M87.382,49.422c-8.413,0-14.064,2.022-14.064,3.91c0,1.891,5.651,3.913,14.064,3.913 c8.412,0,14.063-2.022,14.063-3.913C101.445,51.444,95.794,49.422,87.382,49.422 M87.382,57.677c-8.13,0-14.497-1.908-14.497-4.346 c0-2.434,6.367-4.344,14.497-4.344c8.129,0,14.495,1.91,14.495,4.344C101.877,55.769,95.511,57.677,87.382,57.677"/> <path fill="#FFD34B" d="M72.133,45.706v6.563c0,2.946,8.265,5.336,18.458,5.336c10.194,0,18.458-2.39,18.458-5.336v-6.563H72.133z" /> <path fill="#E5BE44" d="M76.711,45.706h-2.163v9.015c0.003,0.063,0.004,0.127,0.008,0.19c0.616,0.312,1.341,0.603,2.155,0.871 V45.706z"/> <path fill="#E5BE44" d="M77.792,45.706h-0.648V55.92c0.21,0.064,0.426,0.127,0.648,0.189V45.706z"/> <path fill="#E5BE44" d="M79.307,45.706h-0.973v10.545c0.312,0.08,0.642,0.156,0.973,0.23V45.706z"/> <path fill="#E5BE44" d="M86.715,45.706h-2.487v11.569c0.803,0.085,1.637,0.152,2.487,0.204V45.706z"/> <path fill="#E5BE44" d="M88.662,45.706h-1.026v11.827c0.337,0.014,0.682,0.025,1.026,0.036V45.706z"/> <path fill="#E5BE44" d="M93.799,45.706h-0.865V57.56c0.291-0.011,0.579-0.023,0.865-0.039V45.706z"/> <path fill="#E5BE44" d="M95.259,45.706h-0.811v11.78c0.272-0.019,0.543-0.035,0.811-0.056V45.706z"/> <path fill="#E5BE44" d="M97.314,45.706h-1.676v11.693c0.571-0.048,1.129-0.103,1.676-0.164V45.706z"/> <path fill="#E5BE44" d="M105.371,45.706h-1.838v10.363c0.664-0.188,1.278-0.393,1.838-0.61V45.706z"/> <path fill="#E5BE44" d="M105.696,45.706v9.624c2.109-0.865,3.352-1.92,3.352-3.061v-6.563H105.696z"/> <path fill="#FFD34B" d="M109.048,45.706c0,2.949-8.264,5.337-18.457,5.337c-10.194,0-18.459-2.388-18.459-5.337 c0-2.946,8.265-5.335,18.459-5.335C100.784,40.371,109.048,42.76,109.048,45.706"/> <path fill="#F0C746" d="M89.344,46.074c-2.465-1.413-4.659-3.174-6.552-5.203c-6.295,0.849-10.66,2.695-10.66,4.835 c0,2.949,8.265,5.337,18.459,5.337c5.2,0,9.895-0.622,13.25-1.624C98.811,49.351,93.868,48.671,89.344,46.074"/> <path fill="#FFFFFF" d="M90.591,41.796c-8.413,0-14.064,2.022-14.064,3.91c0,1.891,5.651,3.913,14.064,3.913 c8.412,0,14.063-2.022,14.063-3.913C104.654,43.818,99.003,41.796,90.591,41.796 M90.591,50.052c-8.13,0-14.497-1.909-14.497-4.346 c0-2.434,6.367-4.344,14.497-4.344c8.129,0,14.495,1.91,14.495,4.344C105.086,48.143,98.72,50.052,90.591,50.052"/> <path fill="#FFD34B" d="M75.991,37.783v6.563c0,2.946,8.265,5.336,18.458,5.336c10.194,0,18.458-2.39,18.458-5.336v-6.563H75.991z" /> <path fill="#E5BE44" d="M80.569,37.783h-2.163v9.015c0.003,0.063,0.004,0.127,0.008,0.191c0.616,0.311,1.341,0.602,2.155,0.87 V37.783z"/> <path fill="#E5BE44" d="M81.65,37.783h-0.648v10.213c0.21,0.065,0.426,0.128,0.648,0.19V37.783z"/> <path fill="#E5BE44" d="M83.165,37.783h-0.973v10.546c0.312,0.08,0.642,0.155,0.973,0.23V37.783z"/> <path fill="#E5BE44" d="M90.573,37.783h-2.487v11.569c0.803,0.085,1.637,0.152,2.487,0.204V37.783z"/> <path fill="#E5BE44" d="M92.52,37.783h-1.026v11.826c0.337,0.015,0.682,0.026,1.026,0.037V37.783z"/> <path fill="#E5BE44" d="M97.657,37.783h-0.865v11.854c0.291-0.011,0.579-0.024,0.865-0.039V37.783z"/> <path fill="#E5BE44" d="M99.117,37.783h-0.811v11.78c0.272-0.019,0.543-0.036,0.811-0.056V37.783z"/> <path fill="#E5BE44" d="M101.172,37.783h-1.676v11.693c0.571-0.048,1.129-0.103,1.676-0.164V37.783z"/> <path fill="#E5BE44" d="M109.229,37.783h-1.838v10.363c0.664-0.189,1.278-0.393,1.838-0.61V37.783z"/> <path fill="#E5BE44" d="M109.554,37.783v9.624c2.109-0.866,3.352-1.921,3.352-3.061v-6.563H109.554z"/> <path fill="#FFD34B" d="M112.906,37.783c0,2.949-8.264,5.337-18.457,5.337c-10.194,0-18.459-2.388-18.459-5.337 c0-2.946,8.265-5.335,18.459-5.335C104.642,32.448,112.906,34.837,112.906,37.783"/> <path fill="#F0C746" d="M93.202,38.151c-2.465-1.413-4.659-3.174-6.552-5.203c-6.295,0.849-10.66,2.695-10.66,4.835 c0,2.949,8.265,5.337,18.459,5.337c5.2,0,9.895-0.622,13.25-1.624C102.669,41.428,97.726,40.747,93.202,38.151"/> <path fill="#FFFFFF" d="M94.449,33.872c-8.413,0-14.064,2.022-14.064,3.91c0,1.891,5.651,3.913,14.064,3.913 c8.412,0,14.063-2.022,14.063-3.913C108.512,35.894,102.861,33.872,94.449,33.872 M94.449,42.129 c-8.13,0-14.497-1.909-14.497-4.346c0-2.434,6.367-4.344,14.497-4.344c8.129,0,14.495,1.91,14.495,4.344 C108.944,40.219,102.578,42.129,94.449,42.129"/> <path fill="#FFD34B" d="M109.847,65.724v6.563c0,2.946,8.265,5.336,18.458,5.336c10.194,0,18.458-2.39,18.458-5.336v-6.563H109.847 z"/> <path fill="#E5BE44" d="M114.425,65.724h-2.163v9.015c0.003,0.063,0.004,0.127,0.008,0.19c0.616,0.312,1.341,0.603,2.155,0.871 V65.724z"/> <path fill="#E5BE44" d="M115.506,65.724h-0.648v10.213c0.21,0.064,0.426,0.128,0.648,0.189V65.724z"/> <path fill="#E5BE44" d="M117.021,65.724h-0.973V76.27c0.312,0.08,0.642,0.155,0.973,0.229V65.724z"/> <path fill="#E5BE44" d="M124.429,65.724h-2.487v11.568c0.803,0.086,1.637,0.152,2.487,0.205V65.724z"/> <path fill="#E5BE44" d="M126.375,65.724h-1.025V77.55c0.337,0.015,0.682,0.025,1.025,0.037V65.724z"/> <path fill="#E5BE44" d="M131.514,65.724h-0.865v11.854c0.291-0.011,0.579-0.023,0.865-0.039V65.724z"/> <path fill="#E5BE44" d="M132.974,65.724h-0.812v11.779c0.272-0.019,0.543-0.035,0.812-0.056V65.724z"/> <path fill="#E5BE44" d="M135.028,65.724h-1.677v11.693c0.572-0.049,1.129-0.104,1.677-0.164V65.724z"/> <path fill="#E5BE44" d="M143.085,65.724h-1.838v10.363c0.664-0.189,1.278-0.394,1.838-0.61V65.724z"/> <path fill="#E5BE44" d="M143.41,65.724v9.624c2.109-0.866,3.352-1.921,3.352-3.062v-6.563H143.41z"/> <path fill="#FFD34B" d="M146.762,65.724c0,2.949-8.264,5.337-18.457,5.337s-18.458-2.388-18.458-5.337 c0-2.946,8.265-5.336,18.458-5.336S146.762,62.778,146.762,65.724"/> <path fill="#F0C746" d="M127.059,66.091c-2.465-1.412-4.659-3.174-6.552-5.202c-6.295,0.849-10.66,2.694-10.66,4.835 c0,2.949,8.265,5.337,18.458,5.337c5.201,0,9.896-0.622,13.25-1.624C136.525,69.369,131.582,68.688,127.059,66.091"/> <path fill="#FFFFFF" d="M128.305,61.814c-8.413,0-14.063,2.021-14.063,3.91c0,1.891,5.651,3.912,14.063,3.912 c8.412,0,14.063-2.021,14.063-3.912C142.368,63.836,136.717,61.814,128.305,61.814 M128.305,70.07 c-8.129,0-14.497-1.909-14.497-4.346c0-2.435,6.367-4.345,14.497-4.345c8.129,0,14.496,1.91,14.496,4.345 C142.801,68.161,136.434,70.07,128.305,70.07"/> <path fill="#FFD34B" d="M112.19,58.098v6.563c0,2.946,8.265,5.337,18.458,5.337s18.457-2.391,18.457-5.337v-6.563H112.19z"/> <path fill="#E5BE44" d="M116.769,58.098h-2.163v9.015c0.003,0.063,0.004,0.127,0.008,0.191c0.616,0.311,1.341,0.602,2.155,0.869 V58.098z"/> <path fill="#E5BE44" d="M117.85,58.098h-0.648v10.213c0.21,0.065,0.426,0.128,0.648,0.19V58.098z"/> <path fill="#E5BE44" d="M119.364,58.098h-0.973v10.546c0.312,0.08,0.642,0.154,0.973,0.23V58.098z"/> <path fill="#E5BE44" d="M126.772,58.098h-2.487v11.569c0.803,0.084,1.637,0.151,2.487,0.203V58.098z"/> <path fill="#E5BE44" d="M128.719,58.098h-1.025v11.825c0.336,0.016,0.682,0.026,1.025,0.037V58.098z"/> <path fill="#E5BE44" d="M133.856,58.098h-0.864v11.854c0.291-0.011,0.578-0.024,0.864-0.039V58.098z"/> <path fill="#E5BE44" d="M135.316,58.098h-0.811v11.78c0.271-0.02,0.543-0.037,0.811-0.057V58.098z"/> <path fill="#E5BE44" d="M137.371,58.098h-1.676v11.692c0.571-0.048,1.129-0.103,1.676-0.164V58.098z"/> <path fill="#E5BE44" d="M145.428,58.098h-1.838v10.362c0.664-0.188,1.278-0.393,1.838-0.609V58.098z"/> <path fill="#E5BE44" d="M145.754,58.098v9.624c2.108-0.866,3.352-1.922,3.352-3.062v-6.563H145.754z"/> <path fill="#FFD34B" d="M149.105,58.098c0,2.948-8.264,5.337-18.457,5.337c-10.194,0-18.459-2.389-18.459-5.337 c0-2.946,8.265-5.335,18.459-5.335C140.842,52.763,149.105,55.152,149.105,58.098"/> <path fill="#F0C746" d="M129.402,58.466c-2.466-1.413-4.66-3.174-6.553-5.203c-6.295,0.849-10.66,2.695-10.66,4.835 c0,2.948,8.265,5.337,18.459,5.337c5.2,0,9.896-0.622,13.25-1.624C138.869,61.744,133.926,61.062,129.402,58.466"/> <path fill="#FFFFFF" d="M130.648,54.187c-8.413,0-14.065,2.022-14.065,3.91c0,1.891,5.652,3.913,14.065,3.913 c8.412,0,14.063-2.022,14.063-3.913C144.711,56.21,139.061,54.187,130.648,54.187 M130.648,62.443 c-8.13,0-14.497-1.907-14.497-4.346c0-2.434,6.367-4.344,14.497-4.344c8.129,0,14.494,1.91,14.494,4.344 C145.143,60.536,138.777,62.443,130.648,62.443"/> <path fill="#FFD34B" d="M109.748,50.051v6.563c0,2.945,8.265,5.336,18.458,5.336c10.194,0,18.458-2.391,18.458-5.336v-6.563 H109.748z"/> <path fill="#E5BE44" d="M114.327,50.051h-2.163v9.015c0.003,0.063,0.004,0.127,0.008,0.191c0.616,0.311,1.341,0.602,2.155,0.87 V50.051z"/> <path fill="#E5BE44" d="M115.408,50.051h-0.648v10.213c0.21,0.065,0.426,0.128,0.648,0.19V50.051z"/> <path fill="#E5BE44" d="M116.922,50.051h-0.973v10.546c0.312,0.08,0.642,0.155,0.973,0.23V50.051z"/> <path fill="#E5BE44" d="M124.33,50.051h-2.487v11.569c0.803,0.084,1.637,0.151,2.487,0.203V50.051z"/> <path fill="#E5BE44" d="M126.277,50.051h-1.026v11.826c0.337,0.015,0.682,0.026,1.026,0.036V50.051z"/> <path fill="#E5BE44" d="M131.414,50.051h-0.864v11.854c0.291-0.012,0.579-0.024,0.864-0.039V50.051z"/> <path fill="#E5BE44" d="M132.875,50.051h-0.811v11.78c0.271-0.02,0.543-0.036,0.811-0.057V50.051z"/> <path fill="#E5BE44" d="M134.93,50.051h-1.676v11.692c0.57-0.047,1.129-0.103,1.676-0.164V50.051z"/> <path fill="#E5BE44" d="M142.986,50.051h-1.838v10.362c0.664-0.188,1.277-0.393,1.838-0.609V50.051z"/> <path fill="#E5BE44" d="M143.312,50.051v9.624c2.108-0.866,3.352-1.921,3.352-3.061v-6.563H143.312z"/> <path fill="#FFD34B" d="M146.664,50.051c0,2.949-8.264,5.337-18.457,5.337c-10.194,0-18.459-2.388-18.459-5.337 c0-2.946,8.265-5.335,18.459-5.335C138.4,44.716,146.664,47.105,146.664,50.051"/> <path fill="#F0C746" d="M126.959,50.42c-2.464-1.413-4.658-3.174-6.551-5.203c-6.295,0.849-10.66,2.695-10.66,4.835 c0,2.949,8.265,5.337,18.459,5.337c5.199,0,9.895-0.622,13.25-1.624C136.427,53.696,131.484,53.015,126.959,50.42"/> <path fill="#FFFFFF" d="M128.206,46.141c-8.413,0-14.065,2.022-14.065,3.91c0,1.891,5.652,3.914,14.065,3.914 c8.412,0,14.063-2.022,14.063-3.914C142.27,48.163,136.618,46.141,128.206,46.141 M128.206,54.397 c-8.13,0-14.497-1.909-14.497-4.346c0-2.434,6.367-4.344,14.497-4.344s14.495,1.91,14.495,4.344 C142.701,52.488,136.336,54.397,128.206,54.397"/> <path fill="#FFD34B" d="M113.606,44.125v6.563c0,2.946,8.265,5.335,18.458,5.335s18.458-2.39,18.458-5.335v-6.563H113.606z"/> <path fill="#E5BE44" d="M118.185,44.125h-2.163v9.015c0.003,0.063,0.004,0.127,0.008,0.191c0.616,0.311,1.341,0.603,2.155,0.87 V44.125z"/> <path fill="#E5BE44" d="M119.266,44.125h-0.648v10.213c0.21,0.065,0.426,0.128,0.648,0.19V44.125z"/> <path fill="#E5BE44" d="M120.78,44.125h-0.973v10.546c0.312,0.08,0.642,0.155,0.973,0.229V44.125z"/> <path fill="#E5BE44" d="M128.188,44.125h-2.487v11.569c0.803,0.085,1.637,0.151,2.487,0.204V44.125z"/> <path fill="#E5BE44" d="M130.135,44.125h-1.025v11.826c0.338,0.015,0.682,0.025,1.025,0.037V44.125z"/> <path fill="#E5BE44" d="M135.272,44.125h-0.864v11.854c0.291-0.01,0.578-0.023,0.864-0.039V44.125z"/> <path fill="#E5BE44" d="M136.732,44.125h-0.811v11.78c0.271-0.019,0.543-0.036,0.811-0.056V44.125z"/> <path fill="#E5BE44" d="M138.787,44.125h-1.676v11.693c0.571-0.049,1.129-0.104,1.676-0.164V44.125z"/> <path fill="#E5BE44" d="M146.845,44.125h-1.839v10.363c0.664-0.189,1.279-0.393,1.839-0.61V44.125z"/> <path fill="#E5BE44" d="M147.17,44.125v9.624c2.108-0.866,3.352-1.921,3.352-3.061v-6.563H147.17z"/> <path fill="#FFD34B" d="M150.521,44.125c0,2.949-8.264,5.337-18.457,5.337c-10.194,0-18.458-2.388-18.458-5.337 c0-2.946,8.265-5.335,18.458-5.335C142.258,38.79,150.521,41.179,150.521,44.125"/> <path fill="#F0C746" d="M130.818,44.493c-2.465-1.413-4.66-3.174-6.553-5.203c-6.295,0.849-10.66,2.695-10.66,4.835 c0,2.949,8.265,5.337,18.458,5.337c5.2,0,9.896-0.622,13.25-1.624C140.285,47.77,135.342,47.089,130.818,44.493"/> <path fill="#FFFFFF" d="M132.064,40.214c-8.413,0-14.064,2.022-14.064,3.91c0,1.891,5.651,3.913,14.064,3.913 c8.412,0,14.063-2.022,14.063-3.913C146.127,42.236,140.477,40.214,132.064,40.214 M132.064,48.47 c-8.13,0-14.497-1.909-14.497-4.346c0-2.434,6.367-4.344,14.497-4.344c8.129,0,14.495,1.91,14.495,4.344 C146.56,46.561,140.193,48.47,132.064,48.47"/> <path fill="#FFD34B" d="M115.732,36.253v6.563c0,2.946,8.265,5.336,18.458,5.336c10.195,0,18.459-2.39,18.459-5.336v-6.563H115.732 z"/> <path fill="#E5BE44" d="M120.311,36.253h-2.163v9.015c0.003,0.063,0.004,0.127,0.008,0.191c0.616,0.311,1.341,0.602,2.155,0.87 V36.253z"/> <path fill="#E5BE44" d="M121.392,36.253h-0.648v10.213c0.21,0.065,0.426,0.128,0.648,0.19V36.253z"/> <path fill="#E5BE44" d="M122.906,36.253h-0.973v10.546c0.312,0.08,0.642,0.155,0.973,0.23V36.253z"/> <path fill="#E5BE44" d="M130.314,36.253h-2.487v11.569c0.804,0.085,1.638,0.152,2.487,0.204V36.253z"/> <path fill="#E5BE44" d="M132.262,36.253h-1.027v11.826c0.338,0.015,0.683,0.026,1.027,0.037V36.253z"/> <path fill="#E5BE44" d="M137.398,36.253h-0.865v11.854c0.291-0.011,0.579-0.024,0.865-0.039V36.253z"/> <path fill="#E5BE44" d="M138.859,36.253h-0.812v11.78c0.272-0.019,0.543-0.036,0.812-0.056V36.253z"/> <path fill="#E5BE44" d="M140.914,36.253h-1.677v11.693c0.571-0.048,1.129-0.103,1.677-0.164V36.253z"/> <path fill="#E5BE44" d="M148.971,36.253h-1.838v10.362c0.664-0.188,1.277-0.392,1.838-0.609V36.253z"/> <path fill="#E5BE44" d="M149.295,36.253v9.624c2.109-0.866,3.353-1.921,3.353-3.061v-6.563H149.295z"/> <path fill="#FFD34B" d="M152.647,36.253c0,2.949-8.264,5.337-18.456,5.337c-10.195,0-18.459-2.388-18.459-5.337 c0-2.946,8.265-5.335,18.459-5.335C144.384,30.918,152.647,33.307,152.647,36.253"/> <path fill="#F0C746" d="M132.943,36.621c-2.465-1.413-4.658-3.174-6.552-5.203c-6.295,0.849-10.66,2.695-10.66,4.835 c0,2.949,8.265,5.337,18.46,5.337c5.199,0,9.895-0.622,13.25-1.624C142.41,39.898,137.468,39.217,132.943,36.621"/> <path fill="#FFFFFF" d="M134.19,32.342c-8.413,0-14.064,2.022-14.064,3.91c0,1.891,5.651,3.913,14.064,3.913 c8.412,0,14.063-2.022,14.063-3.913C148.254,34.364,142.603,32.342,134.19,32.342 M134.19,40.598 c-8.13,0-14.497-1.909-14.497-4.346c0-2.434,6.367-4.344,14.497-4.344c8.129,0,14.495,1.91,14.495,4.344 C148.686,38.689,142.319,40.598,134.19,40.598"/> <path fill="#FFD34B" d="M112.19,28.627v6.563c0,2.946,8.265,5.336,18.458,5.336s18.457-2.39,18.457-5.336v-6.563H112.19z"/> <path fill="#E5BE44" d="M116.769,28.627h-2.163v9.015c0.003,0.063,0.004,0.127,0.008,0.191c0.616,0.311,1.341,0.602,2.155,0.87 V28.627z"/> <path fill="#E5BE44" d="M117.85,28.627h-0.648V38.84c0.21,0.065,0.426,0.128,0.648,0.19V28.627z"/> <path fill="#E5BE44" d="M119.364,28.627h-0.973v10.546c0.312,0.08,0.642,0.155,0.973,0.23V28.627z"/> <path fill="#E5BE44" d="M126.772,28.627h-2.487v11.569c0.803,0.085,1.637,0.152,2.487,0.204V28.627z"/> <path fill="#E5BE44" d="M128.719,28.627h-1.025v11.826c0.336,0.015,0.682,0.026,1.025,0.037V28.627z"/> <path fill="#E5BE44" d="M133.856,28.627h-0.864v11.854c0.291-0.011,0.578-0.024,0.864-0.039V28.627z"/> <path fill="#E5BE44" d="M135.316,28.627h-0.811v11.78c0.271-0.019,0.543-0.036,0.811-0.056V28.627z"/> <path fill="#E5BE44" d="M137.371,28.627h-1.676V40.32c0.571-0.048,1.129-0.103,1.676-0.164V28.627z"/> <path fill="#E5BE44" d="M145.428,28.627h-1.838v10.362c0.664-0.188,1.278-0.392,1.838-0.609V28.627z"/> <path fill="#E5BE44" d="M145.754,28.627v9.624c2.108-0.866,3.352-1.921,3.352-3.061v-6.563H145.754z"/> <path fill="#FFD34B" d="M149.105,28.627c0,2.949-8.264,5.337-18.457,5.337c-10.194,0-18.459-2.388-18.459-5.337 c0-2.946,8.265-5.335,18.459-5.335C140.842,23.292,149.105,25.681,149.105,28.627"/> <path fill="#F0C746" d="M129.402,28.995c-2.466-1.413-4.66-3.174-6.553-5.203c-6.295,0.849-10.66,2.695-10.66,4.835 c0,2.949,8.265,5.337,18.459,5.337c5.2,0,9.896-0.622,13.25-1.624C138.869,32.272,133.926,31.591,129.402,28.995"/> <path fill="#FFFFFF" d="M130.648,24.716c-8.413,0-14.065,2.022-14.065,3.91c0,1.891,5.652,3.913,14.065,3.913 c8.412,0,14.063-2.022,14.063-3.913C144.711,26.738,139.061,24.716,130.648,24.716 M130.648,32.972 c-8.13,0-14.497-1.909-14.497-4.346c0-2.434,6.367-4.344,14.497-4.344c8.129,0,14.494,1.91,14.494,4.344 C145.143,31.063,138.777,32.972,130.648,32.972"/> <path fill="#FFD34B" d="M114.795,21.001v6.563c0,2.946,8.265,5.336,18.458,5.336c10.193,0,18.457-2.39,18.457-5.336v-6.563H114.795 z"/> <path fill="#E5BE44" d="M119.374,21.001h-2.163v9.015c0.003,0.063,0.004,0.127,0.008,0.191c0.616,0.311,1.341,0.602,2.155,0.87 V21.001z"/> <path fill="#E5BE44" d="M120.455,21.001h-0.648v10.213c0.21,0.065,0.426,0.128,0.648,0.19V21.001z"/> <path fill="#E5BE44" d="M121.969,21.001h-0.973v10.546c0.312,0.08,0.642,0.155,0.973,0.23V21.001z"/> <path fill="#E5BE44" d="M129.377,21.001h-2.486V32.57c0.803,0.085,1.637,0.152,2.486,0.204V21.001z"/> <path fill="#E5BE44" d="M131.324,21.001h-1.026v11.826c0.337,0.015,0.683,0.026,1.026,0.037V21.001z"/> <path fill="#E5BE44" d="M136.461,21.001h-0.864v11.854c0.291-0.011,0.579-0.024,0.864-0.039V21.001z"/> <path fill="#E5BE44" d="M137.922,21.001h-0.811v11.78c0.271-0.019,0.543-0.036,0.811-0.056V21.001z"/> <path fill="#E5BE44" d="M139.977,21.001h-1.676v11.693c0.57-0.048,1.129-0.103,1.676-0.164V21.001z"/> <path fill="#E5BE44" d="M148.033,21.001h-1.838v10.363c0.664-0.189,1.278-0.393,1.838-0.61V21.001z"/> <path fill="#E5BE44" d="M148.358,21.001v9.624c2.108-0.866,3.353-1.921,3.353-3.061v-6.563H148.358z"/> <path fill="#FFD34B" d="M151.711,21.001c0,2.949-8.264,5.337-18.457,5.337c-10.194,0-18.459-2.388-18.459-5.337 c0-2.946,8.265-5.335,18.459-5.335C143.447,15.666,151.711,18.055,151.711,21.001"/> <path fill="#F0C746" d="M132.007,21.369c-2.466-1.413-4.659-3.174-6.552-5.203c-6.295,0.849-10.66,2.695-10.66,4.835 c0,2.949,8.265,5.337,18.459,5.337c5.199,0,9.895-0.622,13.25-1.624C141.474,24.646,136.531,23.965,132.007,21.369"/> <path fill="#FFFFFF" d="M133.254,17.09c-8.414,0-14.064,2.022-14.064,3.91c0,1.891,5.651,3.913,14.064,3.913 c8.412,0,14.063-2.022,14.063-3.913C147.316,19.112,141.666,17.09,133.254,17.09 M133.254,25.346 c-8.13,0-14.498-1.909-14.498-4.346c0-2.434,6.367-4.344,14.498-4.344c8.129,0,14.494,1.91,14.494,4.344 C147.748,23.437,141.383,25.346,133.254,25.346"/> <path fill="#FFD34B" d="M115.95,13.375v6.563c0,2.946,8.265,5.336,18.458,5.336c10.193,0,18.457-2.39,18.457-5.336v-6.563H115.95z" /> <path fill="#E5BE44" d="M120.528,13.375h-2.163v9.015c0.003,0.063,0.004,0.127,0.008,0.191c0.616,0.311,1.341,0.602,2.155,0.87 V13.375z"/> <path fill="#E5BE44" d="M121.609,13.375h-0.648v10.213c0.21,0.065,0.426,0.128,0.648,0.19V13.375z"/> <path fill="#E5BE44" d="M123.124,13.375h-0.973v10.546c0.312,0.08,0.642,0.155,0.973,0.23V13.375z"/> <path fill="#E5BE44" d="M130.531,13.375h-2.486v11.569c0.803,0.085,1.637,0.152,2.486,0.204V13.375z"/> <path fill="#E5BE44" d="M132.479,13.375h-1.026v11.826c0.337,0.015,0.683,0.026,1.026,0.037V13.375z"/> <path fill="#E5BE44" d="M137.615,13.375h-0.864v11.854c0.291-0.011,0.579-0.024,0.864-0.039V13.375z"/> <path fill="#E5BE44" d="M139.076,13.375h-0.811v11.78c0.271-0.019,0.543-0.036,0.811-0.056V13.375z"/> <path fill="#E5BE44" d="M141.131,13.375h-1.676v11.693c0.57-0.048,1.129-0.103,1.676-0.164V13.375z"/> <path fill="#E5BE44" d="M149.188,13.375h-1.838v10.363c0.664-0.189,1.278-0.393,1.838-0.61V13.375z"/> <path fill="#E5BE44" d="M149.513,13.375v9.624c2.108-0.866,3.353-1.921,3.353-3.061v-6.563H149.513z"/> <path fill="#FFD34B" d="M152.865,13.375c0,2.949-8.264,5.337-18.457,5.337c-10.194,0-18.459-2.388-18.459-5.337 c0-2.946,8.265-5.335,18.459-5.335C144.602,8.04,152.865,10.429,152.865,13.375"/> <path fill="#F0C746" d="M133.161,13.743c-2.465-1.413-4.659-3.174-6.552-5.203c-6.295,0.849-10.66,2.695-10.66,4.835 c0,2.949,8.265,5.337,18.459,5.337c5.199,0,9.895-0.622,13.25-1.624C142.628,17.02,137.686,16.339,133.161,13.743"/> <path fill="#FFFFFF" d="M134.408,9.464c-8.414,0-14.064,2.022-14.064,3.91c0,1.891,5.651,3.913,14.064,3.913 c8.412,0,14.063-2.022,14.063-3.913C148.471,11.486,142.82,9.464,134.408,9.464 M134.408,17.72c-8.131,0-14.498-1.909-14.498-4.346 c0-2.434,6.367-4.344,14.498-4.344c8.129,0,14.494,1.91,14.494,4.344C148.902,15.811,142.537,17.72,134.408,17.72"/> <path fill="#FFD34B" d="M150.133,65.724v6.563c0,2.946,8.266,5.336,18.459,5.336s18.457-2.39,18.457-5.336v-6.563H150.133z"/> <path fill="#E5BE44" d="M154.712,65.724h-2.163v9.015c0.003,0.063,0.004,0.127,0.008,0.19c0.616,0.312,1.342,0.603,2.155,0.871 V65.724z"/> <path fill="#E5BE44" d="M155.793,65.724h-0.648v10.213c0.211,0.064,0.426,0.128,0.648,0.189V65.724z"/> <path fill="#E5BE44" d="M157.307,65.724h-0.973V76.27c0.313,0.08,0.643,0.155,0.973,0.229V65.724z"/> <path fill="#E5BE44" d="M164.715,65.724h-2.486v11.568c0.803,0.086,1.637,0.152,2.486,0.205V65.724z"/> <path fill="#E5BE44" d="M166.662,65.724h-1.025V77.55c0.338,0.015,0.682,0.025,1.025,0.037V65.724z"/> <path fill="#E5BE44" d="M171.8,65.724h-0.865v11.854c0.291-0.011,0.579-0.023,0.865-0.039V65.724z"/> <path fill="#E5BE44" d="M173.26,65.724h-0.811v11.779c0.271-0.019,0.543-0.035,0.811-0.056V65.724z"/> <path fill="#E5BE44" d="M175.314,65.724h-1.676v11.693c0.57-0.049,1.129-0.104,1.676-0.164V65.724z"/> <path fill="#E5BE44" d="M183.371,65.724h-1.838v10.363c0.664-0.189,1.278-0.394,1.838-0.61V65.724z"/> <path fill="#E5BE44" d="M183.696,65.724v9.624c2.109-0.866,3.353-1.921,3.353-3.062v-6.563H183.696z"/> <path fill="#FFD34B" d="M187.049,65.724c0,2.949-8.264,5.337-18.457,5.337s-18.459-2.388-18.459-5.337 c0-2.946,8.266-5.336,18.459-5.336S187.049,62.778,187.049,65.724"/> <path fill="#F0C746" d="M167.345,66.091c-2.465-1.412-4.659-3.174-6.552-5.202c-6.295,0.849-10.66,2.694-10.66,4.835 c0,2.949,8.266,5.337,18.459,5.337c5.2,0,9.895-0.622,13.25-1.624C176.813,69.369,171.869,68.688,167.345,66.091"/> <path fill="#FFFFFF" d="M168.592,61.814c-8.413,0-14.064,2.021-14.064,3.91c0,1.891,5.651,3.912,14.064,3.912 c8.412,0,14.063-2.021,14.063-3.912C182.654,63.836,177.004,61.814,168.592,61.814 M168.592,70.07 c-8.131,0-14.497-1.909-14.497-4.346c0-2.435,6.366-4.345,14.497-4.345c8.129,0,14.494,1.91,14.494,4.345 C183.086,68.161,176.721,70.07,168.592,70.07"/> <path fill="#FFD34B" d="M152.477,58.098v6.563c0,2.946,8.266,5.337,18.458,5.337c10.194,0,18.458-2.391,18.458-5.337v-6.563 H152.477z"/> <path fill="#E5BE44" d="M157.055,58.098h-2.162v9.015c0.002,0.063,0.004,0.127,0.008,0.191c0.615,0.311,1.341,0.602,2.154,0.869 V58.098z"/> <path fill="#E5BE44" d="M158.137,58.098h-0.648v10.213c0.21,0.065,0.426,0.128,0.648,0.19V58.098z"/> <path fill="#E5BE44" d="M159.65,58.098h-0.973v10.546c0.312,0.08,0.642,0.154,0.973,0.23V58.098z"/> <path fill="#E5BE44" d="M167.059,58.098h-2.486v11.569c0.803,0.084,1.637,0.151,2.486,0.203V58.098z"/> <path fill="#E5BE44" d="M169.006,58.098h-1.026v11.825c0.337,0.016,0.683,0.026,1.026,0.037V58.098z"/> <path fill="#E5BE44" d="M174.143,58.098h-0.865v11.854c0.291-0.011,0.58-0.024,0.865-0.039V58.098z"/> <path fill="#E5BE44" d="M175.604,58.098h-0.812v11.78c0.272-0.02,0.543-0.037,0.812-0.057V58.098z"/> <path fill="#E5BE44" d="M177.658,58.098h-1.676v11.692c0.57-0.048,1.129-0.103,1.676-0.164V58.098z"/> <path fill="#E5BE44" d="M185.715,58.098h-1.838v10.362c0.664-0.188,1.277-0.393,1.838-0.609V58.098z"/> <path fill="#E5BE44" d="M186.04,58.098v9.624c2.108-0.866,3.352-1.922,3.352-3.062v-6.563H186.04z"/> <path fill="#FFD34B" d="M189.393,58.098c0,2.948-8.265,5.337-18.457,5.337c-10.194,0-18.459-2.389-18.459-5.337 c0-2.946,8.265-5.335,18.459-5.335C181.128,52.763,189.393,55.152,189.393,58.098"/> <path fill="#F0C746" d="M169.688,58.466c-2.465-1.413-4.658-3.174-6.551-5.203c-6.295,0.849-10.66,2.695-10.66,4.835 c0,2.948,8.265,5.337,18.459,5.337c5.199,0,9.895-0.622,13.25-1.624C179.155,61.744,174.212,61.062,169.688,58.466"/> <path fill="#FFFFFF" d="M170.935,54.187c-8.413,0-14.063,2.022-14.063,3.91c0,1.891,5.65,3.913,14.063,3.913 c8.412,0,14.063-2.022,14.063-3.913C184.998,56.21,179.347,54.187,170.935,54.187 M170.935,62.443 c-8.13,0-14.497-1.907-14.497-4.346c0-2.434,6.367-4.344,14.497-4.344s14.495,1.91,14.495,4.344 C185.43,60.536,179.064,62.443,170.935,62.443"/> <path fill="#FFD34B" d="M189.582,65.724v6.563c0,2.946,8.265,5.336,18.458,5.336c10.194,0,18.458-2.39,18.458-5.336v-6.563H189.582 z"/> <path fill="#E5BE44" d="M194.16,65.724h-2.163v9.015c0.003,0.063,0.005,0.127,0.009,0.19c0.615,0.312,1.34,0.603,2.154,0.871 V65.724z"/> <path fill="#E5BE44" d="M195.241,65.724h-0.647v10.213c0.209,0.064,0.426,0.128,0.647,0.189V65.724z"/> <path fill="#E5BE44" d="M196.756,65.724h-0.973V76.27c0.312,0.08,0.642,0.155,0.973,0.229V65.724z"/> <path fill="#E5BE44" d="M204.164,65.724h-2.487v11.568c0.804,0.086,1.638,0.152,2.487,0.205V65.724z"/> <path fill="#E5BE44" d="M206.11,65.724h-1.026V77.55c0.338,0.015,0.683,0.025,1.026,0.037V65.724z"/> <path fill="#E5BE44" d="M211.248,65.724h-0.865v11.854c0.291-0.011,0.58-0.023,0.865-0.039V65.724z"/> <path fill="#E5BE44" d="M212.709,65.724h-0.812v11.779c0.272-0.019,0.543-0.035,0.812-0.056V65.724z"/> <path fill="#E5BE44" d="M214.764,65.724h-1.677v11.693c0.571-0.049,1.129-0.104,1.677-0.164V65.724z"/> <path fill="#E5BE44" d="M222.82,65.724h-1.838v10.363c0.664-0.189,1.277-0.394,1.838-0.61V65.724z"/> <path fill="#E5BE44" d="M223.145,65.724v9.624c2.109-0.866,3.353-1.921,3.353-3.062v-6.563H223.145z"/> <path fill="#FFD34B" d="M226.497,65.724c0,2.949-8.264,5.337-18.456,5.337c-10.195,0-18.46-2.388-18.46-5.337 c0-2.946,8.265-5.336,18.46-5.336C218.233,60.388,226.497,62.778,226.497,65.724"/> <path fill="#F0C746" d="M206.793,66.091c-2.465-1.412-4.658-3.174-6.552-5.202c-6.295,0.849-10.66,2.694-10.66,4.835 c0,2.949,8.265,5.337,18.46,5.337c5.199,0,9.895-0.622,13.25-1.624C216.26,69.369,211.317,68.688,206.793,66.091"/> <path fill="#FFFFFF" d="M208.04,61.814c-8.413,0-14.063,2.021-14.063,3.91c0,1.891,5.65,3.912,14.063,3.912 c8.412,0,14.063-2.021,14.063-3.912C222.104,63.836,216.452,61.814,208.04,61.814 M208.04,70.07c-8.13,0-14.497-1.909-14.497-4.346 c0-2.435,6.367-4.345,14.497-4.345c8.129,0,14.495,1.91,14.495,4.345C222.535,68.161,216.169,70.07,208.04,70.07"/> <path fill="#FFD34B" d="M188.049,57.107v6.563c0,2.946,8.266,5.336,18.459,5.336s18.457-2.39,18.457-5.336v-6.563H188.049z"/> <path fill="#E5BE44" d="M192.628,57.107h-2.163v9.015c0.003,0.063,0.004,0.127,0.008,0.19c0.616,0.312,1.342,0.603,2.155,0.871 V57.107z"/> <path fill="#E5BE44" d="M193.709,57.107h-0.648V67.32c0.211,0.064,0.426,0.128,0.648,0.189V57.107z"/> <path fill="#E5BE44" d="M195.223,57.107h-0.973v10.546c0.313,0.08,0.643,0.155,0.973,0.229V57.107z"/> <path fill="#E5BE44" d="M202.632,57.107h-2.487v11.568c0.803,0.086,1.637,0.152,2.487,0.205V57.107z"/> <path fill="#E5BE44" d="M204.578,57.107h-1.025v11.826c0.338,0.015,0.682,0.025,1.025,0.037V57.107z"/> <path fill="#E5BE44" d="M209.716,57.107h-0.864v11.854c0.291-0.011,0.578-0.023,0.864-0.039V57.107z"/> <path fill="#E5BE44" d="M211.176,57.107h-0.811v11.779c0.271-0.019,0.543-0.035,0.811-0.056V57.107z"/> <path fill="#E5BE44" d="M213.23,57.107h-1.676V68.8c0.57-0.049,1.129-0.104,1.676-0.164V57.107z"/> <path fill="#E5BE44" d="M221.287,57.107h-1.838V67.47c0.664-0.189,1.278-0.394,1.838-0.61V57.107z"/> <path fill="#E5BE44" d="M221.613,57.107v9.623c2.108-0.865,3.352-1.92,3.352-3.061v-6.563H221.613z"/> <path fill="#FFD34B" d="M224.965,57.107c0,2.949-8.264,5.337-18.457,5.337s-18.459-2.388-18.459-5.337 c0-2.946,8.266-5.335,18.459-5.335S224.965,54.161,224.965,57.107"/> <path fill="#F0C746" d="M205.262,57.474c-2.466-1.412-4.66-3.174-6.553-5.202c-6.295,0.849-10.66,2.694-10.66,4.835 c0,2.949,8.266,5.337,18.459,5.337c5.2,0,9.895-0.622,13.25-1.624C214.729,60.752,209.785,60.071,205.262,57.474"/> <path fill="#FFFFFF" d="M206.508,53.196c-8.413,0-14.064,2.022-14.064,3.911c0,1.891,5.651,3.912,14.064,3.912 c8.412,0,14.063-2.021,14.063-3.912C220.57,55.218,214.92,53.196,206.508,53.196 M206.508,61.453 c-8.131,0-14.497-1.909-14.497-4.346c0-2.435,6.366-4.345,14.497-4.345c8.129,0,14.494,1.91,14.494,4.345 C221.002,59.544,214.637,61.453,206.508,61.453"/> <path fill="#FFD34B" d="M150.035,50.051v6.563c0,2.945,8.264,5.336,18.457,5.336c10.194,0,18.459-2.391,18.459-5.336v-6.563 H150.035z"/> <path fill="#E5BE44" d="M154.613,50.051h-2.163v9.015c0.003,0.063,0.004,0.127,0.008,0.191c0.616,0.311,1.341,0.602,2.155,0.87 V50.051z"/> <path fill="#E5BE44" d="M155.694,50.051h-0.648v10.213c0.21,0.065,0.427,0.128,0.648,0.19V50.051z"/> <path fill="#E5BE44" d="M157.209,50.051h-0.974v10.546c0.312,0.08,0.642,0.155,0.974,0.23V50.051z"/> <path fill="#E5BE44" d="M164.617,50.051h-2.487v11.569c0.803,0.084,1.637,0.151,2.487,0.203V50.051z"/> <path fill="#E5BE44" d="M166.563,50.051h-1.026v11.826c0.338,0.015,0.682,0.026,1.026,0.036V50.051z"/> <path fill="#E5BE44" d="M171.701,50.051h-0.865v11.854c0.291-0.012,0.579-0.024,0.865-0.039V50.051z"/> <path fill="#E5BE44" d="M173.161,50.051h-0.812v11.78c0.272-0.02,0.543-0.036,0.812-0.057V50.051z"/> <path fill="#E5BE44" d="M175.216,50.051h-1.676v11.692c0.571-0.047,1.129-0.103,1.676-0.164V50.051z"/> <path fill="#E5BE44" d="M183.273,50.051h-1.839v10.362c0.664-0.188,1.278-0.393,1.839-0.609V50.051z"/> <path fill="#E5BE44" d="M183.598,50.051v9.624c2.109-0.866,3.352-1.921,3.352-3.061v-6.563H183.598z"/> <path fill="#FFD34B" d="M186.95,50.051c0,2.949-8.265,5.337-18.457,5.337c-10.194,0-18.459-2.388-18.459-5.337 c0-2.946,8.265-5.335,18.459-5.335C178.686,44.716,186.95,47.105,186.95,50.051"/> <path fill="#F0C746" d="M167.246,50.42c-2.465-1.413-4.659-3.174-6.552-5.203c-6.296,0.849-10.66,2.695-10.66,4.835 c0,2.949,8.265,5.337,18.459,5.337c5.2,0,9.896-0.622,13.25-1.624C176.713,53.696,171.77,53.015,167.246,50.42"/> <path fill="#FFFFFF" d="M168.492,46.141c-8.412,0-14.063,2.022-14.063,3.91c0,1.891,5.651,3.914,14.063,3.914 s14.063-2.022,14.063-3.914C182.556,48.163,176.904,46.141,168.492,46.141 M168.492,54.397c-8.129,0-14.496-1.909-14.496-4.346 c0-2.434,6.367-4.344,14.496-4.344s14.496,1.91,14.496,4.344C182.988,52.488,176.621,54.397,168.492,54.397"/> <path fill="#FFD34B" d="M153.893,44.125v6.563c0,2.946,8.266,5.335,18.458,5.335c10.194,0,18.458-2.39,18.458-5.335v-6.563H153.893 z"/> <path fill="#E5BE44" d="M158.471,44.125h-2.162v9.015c0.003,0.063,0.004,0.127,0.008,0.191c0.615,0.311,1.341,0.603,2.154,0.87 V44.125z"/> <path fill="#E5BE44" d="M159.553,44.125h-0.648v10.213c0.21,0.065,0.426,0.128,0.648,0.19V44.125z"/> <path fill="#E5BE44" d="M161.066,44.125h-0.973v10.546c0.312,0.08,0.642,0.155,0.973,0.229V44.125z"/> <path fill="#E5BE44" d="M168.475,44.125h-2.486v11.569c0.803,0.085,1.637,0.151,2.486,0.204V44.125z"/> <path fill="#E5BE44" d="M170.422,44.125h-1.026v11.826c0.337,0.015,0.683,0.025,1.026,0.037V44.125z"/> <path fill="#E5BE44" d="M175.559,44.125h-0.864v11.854c0.29-0.01,0.579-0.023,0.864-0.039V44.125z"/> <path fill="#E5BE44" d="M177.02,44.125h-0.811v11.78c0.271-0.019,0.543-0.036,0.811-0.056V44.125z"/> <path fill="#E5BE44" d="M179.074,44.125h-1.676v11.693c0.57-0.049,1.129-0.104,1.676-0.164V44.125z"/> <path fill="#E5BE44" d="M187.131,44.125h-1.838v10.363c0.664-0.189,1.277-0.393,1.838-0.61V44.125z"/> <path fill="#E5BE44" d="M187.456,44.125v9.624c2.108-0.866,3.353-1.921,3.353-3.061v-6.563H187.456z"/> <path fill="#FFD34B" d="M190.809,44.125c0,2.949-8.265,5.337-18.457,5.337c-10.194,0-18.459-2.388-18.459-5.337 c0-2.946,8.265-5.335,18.459-5.335C182.544,38.79,190.809,41.179,190.809,44.125"/> <path fill="#F0C746" d="M171.104,44.493c-2.465-1.413-4.658-3.174-6.551-5.203c-6.295,0.849-10.66,2.695-10.66,4.835 c0,2.949,8.265,5.337,18.459,5.337c5.199,0,9.895-0.622,13.25-1.624C180.571,47.77,175.629,47.089,171.104,44.493"/> <path fill="#FFFFFF" d="M172.352,40.214c-8.414,0-14.065,2.022-14.065,3.91c0,1.891,5.651,3.913,14.065,3.913 c8.411,0,14.063-2.022,14.063-3.913C186.414,42.236,180.763,40.214,172.352,40.214 M172.352,48.47 c-8.131,0-14.498-1.909-14.498-4.346c0-2.434,6.367-4.344,14.498-4.344c8.129,0,14.494,1.91,14.494,4.344 C186.846,46.561,180.48,48.47,172.352,48.47"/> <path fill="#FFD34B" d="M156.019,36.253v6.563c0,2.946,8.265,5.336,18.458,5.336s18.458-2.39,18.458-5.336v-6.563H156.019z"/> <path fill="#E5BE44" d="M160.598,36.253h-2.164v9.015c0.004,0.063,0.004,0.127,0.008,0.191c0.617,0.311,1.342,0.602,2.156,0.87 V36.253z"/> <path fill="#E5BE44" d="M161.678,36.253h-0.647v10.213c0.21,0.065,0.426,0.128,0.647,0.19V36.253z"/> <path fill="#E5BE44" d="M163.192,36.253h-0.974v10.546c0.313,0.08,0.643,0.155,0.974,0.23V36.253z"/> <path fill="#E5BE44" d="M170.601,36.253h-2.487v11.569c0.803,0.085,1.637,0.152,2.487,0.204V36.253z"/> <path fill="#E5BE44" d="M172.547,36.253h-1.025v11.826c0.338,0.015,0.682,0.026,1.025,0.037V36.253z"/> <path fill="#E5BE44" d="M177.686,36.253h-0.865v11.854c0.291-0.011,0.578-0.024,0.865-0.039V36.253z"/> <path fill="#E5BE44" d="M179.145,36.253h-0.811v11.78c0.272-0.019,0.543-0.036,0.811-0.056V36.253z"/> <path fill="#E5BE44" d="M181.199,36.253h-1.676v11.693c0.571-0.048,1.129-0.103,1.676-0.164V36.253z"/> <path fill="#E5BE44" d="M189.257,36.253h-1.838v10.362c0.664-0.188,1.278-0.392,1.838-0.609V36.253z"/> <path fill="#E5BE44" d="M189.582,36.253v9.624c2.109-0.866,3.352-1.921,3.352-3.061v-6.563H189.582z"/> <path fill="#FFD34B" d="M192.934,36.253c0,2.949-8.264,5.337-18.457,5.337s-18.459-2.388-18.459-5.337 c0-2.946,8.266-5.335,18.459-5.335S192.934,33.307,192.934,36.253"/> <path fill="#F0C746" d="M173.23,36.621c-2.465-1.413-4.659-3.174-6.553-5.203c-6.295,0.849-10.66,2.695-10.66,4.835 c0,2.949,8.266,5.337,18.459,5.337c5.201,0,9.896-0.622,13.25-1.624C182.697,39.898,177.754,39.217,173.23,36.621"/> <path fill="#FFFFFF" d="M174.477,32.342c-8.413,0-14.064,2.022-14.064,3.91c0,1.891,5.651,3.913,14.064,3.913 c8.412,0,14.063-2.022,14.063-3.913C188.539,34.364,182.889,32.342,174.477,32.342 M174.477,40.598 c-8.13,0-14.497-1.909-14.497-4.346c0-2.434,6.367-4.344,14.497-4.344c8.129,0,14.495,1.91,14.495,4.344 C188.972,38.689,182.605,40.598,174.477,40.598"/> <path fill="#FFD34B" d="M152.477,28.627v6.563c0,2.946,8.266,5.336,18.458,5.336c10.194,0,18.458-2.39,18.458-5.336v-6.563H152.477 z"/> <path fill="#E5BE44" d="M157.055,28.627h-2.162v9.015c0.002,0.063,0.004,0.127,0.008,0.191c0.615,0.311,1.341,0.602,2.154,0.87 V28.627z"/> <path fill="#E5BE44" d="M158.137,28.627h-0.648V38.84c0.21,0.065,0.426,0.128,0.648,0.19V28.627z"/> <path fill="#E5BE44" d="M159.65,28.627h-0.973v10.546c0.312,0.08,0.642,0.155,0.973,0.23V28.627z"/> <path fill="#E5BE44" d="M167.059,28.627h-2.486v11.569c0.803,0.085,1.637,0.152,2.486,0.204V28.627z"/> <path fill="#E5BE44" d="M169.006,28.627h-1.026v11.826c0.337,0.015,0.683,0.026,1.026,0.037V28.627z"/> <path fill="#E5BE44" d="M174.143,28.627h-0.865v11.854c0.291-0.011,0.58-0.024,0.865-0.039V28.627z"/> <path fill="#E5BE44" d="M175.604,28.627h-0.812v11.78c0.272-0.019,0.543-0.036,0.812-0.056V28.627z"/> <path fill="#E5BE44" d="M177.658,28.627h-1.676V40.32c0.57-0.048,1.129-0.103,1.676-0.164V28.627z"/> <path fill="#E5BE44" d="M185.715,28.627h-1.838v10.362c0.664-0.188,1.277-0.392,1.838-0.609V28.627z"/> <path fill="#E5BE44" d="M186.04,28.627v9.624c2.108-0.866,3.352-1.921,3.352-3.061v-6.563H186.04z"/> <path fill="#FFD34B" d="M189.393,28.627c0,2.949-8.265,5.337-18.457,5.337c-10.194,0-18.459-2.388-18.459-5.337 c0-2.946,8.265-5.335,18.459-5.335C181.128,23.292,189.393,25.681,189.393,28.627"/> <path fill="#F0C746" d="M169.688,28.995c-2.465-1.413-4.658-3.174-6.551-5.203c-6.295,0.849-10.66,2.695-10.66,4.835 c0,2.949,8.265,5.337,18.459,5.337c5.199,0,9.895-0.622,13.25-1.624C179.155,32.272,174.212,31.591,169.688,28.995"/> <path fill="#FFFFFF" d="M170.935,24.716c-8.413,0-14.063,2.022-14.063,3.91c0,1.891,5.65,3.913,14.063,3.913 c8.412,0,14.063-2.022,14.063-3.913C184.998,26.738,179.347,24.716,170.935,24.716 M170.935,32.972 c-8.13,0-14.497-1.909-14.497-4.346c0-2.434,6.367-4.344,14.497-4.344s14.495,1.91,14.495,4.344 C185.43,31.063,179.064,32.972,170.935,32.972"/> <path fill="#FFD34B" d="M10.524,72.051v6.563c0,2.945,8.265,5.336,18.458,5.336c10.194,0,18.458-2.391,18.458-5.336v-6.563H10.524z "/> <path fill="#E5BE44" d="M15.103,72.051h-2.163v9.015c0.003,0.063,0.004,0.127,0.008,0.191c0.616,0.311,1.341,0.602,2.155,0.87 V72.051z"/> <path fill="#E5BE44" d="M16.184,72.051h-0.648v10.213c0.21,0.065,0.426,0.128,0.648,0.19V72.051z"/> <path fill="#E5BE44" d="M17.698,72.051h-0.973v10.546c0.312,0.08,0.642,0.155,0.973,0.23V72.051z"/> <path fill="#E5BE44" d="M25.106,72.051h-2.487v11.569c0.803,0.084,1.637,0.152,2.487,0.203V72.051z"/> <path fill="#E5BE44" d="M27.053,72.051h-1.026v11.826c0.337,0.015,0.682,0.026,1.026,0.037V72.051z"/> <path fill="#E5BE44" d="M32.19,72.051h-0.865v11.854c0.291-0.012,0.579-0.024,0.865-0.039V72.051z"/> <path fill="#E5BE44" d="M33.651,72.051H32.84v11.78c0.272-0.02,0.543-0.036,0.811-0.057V72.051z"/> <path fill="#E5BE44" d="M35.705,72.051h-1.676v11.692c0.571-0.047,1.129-0.103,1.676-0.164V72.051z"/> <path fill="#E5BE44" d="M43.762,72.051h-1.838v10.363c0.664-0.189,1.278-0.394,1.838-0.61V72.051z"/> <path fill="#E5BE44" d="M44.087,72.051v9.624c2.109-0.866,3.352-1.921,3.352-3.061v-6.563H44.087z"/> <path fill="#FFD34B" d="M47.439,72.051c0,2.949-8.264,5.337-18.457,5.337c-10.194,0-18.459-2.388-18.459-5.337 c0-2.946,8.265-5.335,18.459-5.335C39.176,66.716,47.439,69.105,47.439,72.051"/> <path fill="#F0C746" d="M27.736,72.42c-2.465-1.413-4.659-3.174-6.552-5.203c-6.295,0.85-10.66,2.695-10.66,4.835 c0,2.949,8.265,5.337,18.459,5.337c5.2,0,9.895-0.622,13.25-1.624C37.203,75.697,32.26,75.015,27.736,72.42"/> <path fill="#FFFFFF" d="M28.982,68.141c-8.413,0-14.064,2.022-14.064,3.909c0,1.892,5.651,3.914,14.064,3.914 c8.412,0,14.063-2.022,14.063-3.914C43.045,70.164,37.394,68.141,28.982,68.141 M28.982,76.397c-8.13,0-14.497-1.909-14.497-4.347 c0-2.434,6.367-4.344,14.497-4.344c8.129,0,14.495,1.91,14.495,4.344C43.477,74.488,37.111,76.397,28.982,76.397"/> <path fill="#FFD34B" d="M12.867,64.425v6.563c0,2.946,8.265,5.336,18.458,5.336c10.194,0,18.458-2.39,18.458-5.336v-6.563H12.867z" /> <path fill="#E5BE44" d="M17.446,64.425h-2.163v9.016c0.003,0.063,0.004,0.127,0.008,0.19c0.616,0.312,1.341,0.603,2.155,0.87 V64.425z"/> <path fill="#E5BE44" d="M18.527,64.425h-0.648v10.213c0.21,0.064,0.426,0.128,0.648,0.189V64.425z"/> <path fill="#E5BE44" d="M20.041,64.425h-0.973v10.546c0.312,0.08,0.642,0.155,0.973,0.229V64.425z"/> <path fill="#E5BE44" d="M27.449,64.425h-2.487v11.568c0.803,0.086,1.637,0.152,2.487,0.205V64.425z"/> <path fill="#E5BE44" d="M29.396,64.425H28.37v11.826c0.338,0.015,0.682,0.025,1.026,0.037V64.425z"/> <path fill="#E5BE44" d="M34.534,64.425h-0.865v11.854c0.291-0.011,0.579-0.023,0.865-0.039V64.425z"/> <path fill="#E5BE44" d="M35.994,64.425h-0.811v11.779c0.272-0.019,0.543-0.035,0.811-0.055V64.425z"/> <path fill="#E5BE44" d="M38.048,64.425h-1.676v11.693c0.571-0.049,1.129-0.104,1.676-0.164V64.425z"/> <path fill="#E5BE44" d="M46.105,64.425h-1.838v10.363c0.664-0.189,1.278-0.394,1.838-0.61V64.425z"/> <path fill="#E5BE44" d="M46.431,64.425v9.624c2.109-0.866,3.352-1.921,3.352-3.062v-6.563H46.431z"/> <path fill="#FFD34B" d="M49.783,64.425c0,2.949-8.264,5.337-18.457,5.337c-10.194,0-18.459-2.388-18.459-5.337 c0-2.946,8.265-5.335,18.459-5.335C41.519,59.09,49.783,61.479,49.783,64.425"/> <path fill="#F0C746" d="M30.079,64.794c-2.465-1.413-4.659-3.174-6.552-5.203c-6.295,0.849-10.66,2.695-10.66,4.835 c0,2.949,8.265,5.337,18.459,5.337c5.2,0,9.895-0.622,13.25-1.624C39.546,68.07,34.603,67.389,30.079,64.794"/> <path fill="#FFFFFF" d="M31.326,60.515c-8.413,0-14.064,2.021-14.064,3.91c0,1.891,5.651,3.912,14.064,3.912 c8.412,0,14.063-2.021,14.063-3.912C45.389,62.537,39.737,60.515,31.326,60.515 M31.326,68.771c-8.13,0-14.497-1.909-14.497-4.346 c0-2.435,6.367-4.344,14.497-4.344c8.129,0,14.495,1.909,14.495,4.344C45.82,66.862,39.455,68.771,31.326,68.771"/> <path fill="#FFD34B" d="M8.595,59.66v6.563c0,2.946,8.265,5.336,18.458,5.336c10.194,0,18.458-2.39,18.458-5.336V59.66H8.595z"/> <path fill="#E5BE44" d="M13.174,59.66h-2.163v9.015c0.003,0.063,0.004,0.127,0.008,0.191c0.616,0.311,1.341,0.602,2.155,0.87V59.66 z"/> <path fill="#E5BE44" d="M14.254,59.66h-0.648v10.213c0.21,0.064,0.426,0.128,0.648,0.189V59.66z"/> <path fill="#E5BE44" d="M15.769,59.66h-0.973v10.546c0.312,0.08,0.642,0.155,0.973,0.229V59.66z"/> <path fill="#E5BE44" d="M23.177,59.66H20.69v11.568c0.803,0.086,1.637,0.152,2.487,0.205V59.66z"/> <path fill="#E5BE44" d="M25.124,59.66h-1.026v11.826c0.338,0.015,0.682,0.025,1.026,0.037V59.66z"/> <path fill="#E5BE44" d="M30.262,59.66h-0.865v11.854c0.291-0.011,0.579-0.023,0.865-0.039V59.66z"/> <path fill="#E5BE44" d="M31.722,59.66h-0.811v11.779c0.272-0.019,0.543-0.035,0.811-0.056V59.66z"/> <path fill="#E5BE44" d="M33.776,59.66H32.1v11.693c0.571-0.049,1.129-0.104,1.676-0.164V59.66z"/> <path fill="#E5BE44" d="M41.833,59.66h-1.838v10.363c0.664-0.189,1.278-0.394,1.838-0.61V59.66z"/> <path fill="#E5BE44" d="M42.158,59.66v9.624c2.109-0.866,3.352-1.921,3.352-3.062V59.66H42.158z"/> <path fill="#FFD34B" d="M45.511,59.66c0,2.949-8.264,5.337-18.457,5.337c-10.194,0-18.459-2.388-18.459-5.337 c0-2.946,8.265-5.335,18.459-5.335C37.247,54.325,45.511,56.714,45.511,59.66"/> <path fill="#F0C746" d="M25.807,60.028c-2.465-1.413-4.659-3.175-6.552-5.203c-6.295,0.849-10.66,2.694-10.66,4.835 c0,2.949,8.265,5.337,18.459,5.337c5.2,0,9.895-0.622,13.25-1.624C35.273,63.304,30.331,62.624,25.807,60.028"/> <path fill="#FFFFFF" d="M27.053,55.75c-8.413,0-14.064,2.021-14.064,3.91c0,1.891,5.651,3.912,14.064,3.912 c8.412,0,14.063-2.021,14.063-3.912C41.116,57.771,35.465,55.75,27.053,55.75 M27.053,64.005c-8.13,0-14.497-1.909-14.497-4.346 c0-2.435,6.367-4.345,14.497-4.345c8.129,0,14.495,1.91,14.495,4.345C41.548,62.096,35.182,64.005,27.053,64.005"/> <path fill="#FFD34B" d="M11.804,52.034v6.563c0,2.945,8.265,5.336,18.458,5.336c10.194,0,18.458-2.391,18.458-5.336v-6.563H11.804z "/> <path fill="#E5BE44" d="M16.382,52.034h-2.163v9.015c0.003,0.063,0.004,0.127,0.008,0.191c0.616,0.311,1.341,0.602,2.155,0.869 V52.034z"/> <path fill="#E5BE44" d="M17.463,52.034h-0.648v10.213c0.21,0.065,0.426,0.128,0.648,0.19V52.034z"/> <path fill="#E5BE44" d="M18.978,52.034h-0.973V62.58c0.312,0.08,0.642,0.154,0.973,0.23V52.034z"/> <path fill="#E5BE44" d="M26.386,52.034h-2.487v11.569c0.803,0.084,1.637,0.151,2.487,0.203V52.034z"/> <path fill="#E5BE44" d="M28.333,52.034h-1.026v11.825c0.337,0.016,0.682,0.026,1.026,0.037V52.034z"/> <path fill="#E5BE44" d="M33.47,52.034h-0.865v11.854c0.291-0.011,0.579-0.024,0.865-0.038V52.034z"/> <path fill="#E5BE44" d="M34.93,52.034H34.12v11.78c0.272-0.02,0.543-0.037,0.811-0.057V52.034z"/> <path fill="#E5BE44" d="M36.985,52.034h-1.676v11.692c0.571-0.048,1.129-0.103,1.676-0.164V52.034z"/> <path fill="#E5BE44" d="M45.042,52.034h-1.838v10.362c0.664-0.188,1.278-0.393,1.838-0.609V52.034z"/> <path fill="#E5BE44" d="M45.367,52.034v9.624c2.109-0.866,3.352-1.922,3.352-3.061v-6.563H45.367z"/> <path fill="#FFD34B" d="M48.719,52.034c0,2.948-8.264,5.337-18.457,5.337c-10.194,0-18.459-2.389-18.459-5.337 c0-2.946,8.265-5.335,18.459-5.335C40.455,46.699,48.719,49.088,48.719,52.034"/> <path fill="#F0C746" d="M29.015,52.401c-2.465-1.413-4.659-3.174-6.552-5.203c-6.295,0.849-10.66,2.695-10.66,4.835 c0,2.948,8.265,5.337,18.459,5.337c5.2,0,9.895-0.622,13.25-1.624C38.482,55.679,33.539,54.998,29.015,52.401"/> <path fill="#FFFFFF" d="M30.262,48.123c-8.413,0-14.064,2.022-14.064,3.91c0,1.891,5.651,3.913,14.064,3.913 c8.412,0,14.063-2.021,14.063-3.913C44.325,50.145,38.674,48.123,30.262,48.123 M30.262,56.379c-8.13,0-14.497-1.908-14.497-4.345 c0-2.434,6.367-4.344,14.497-4.344c8.129,0,14.495,1.91,14.495,4.344C44.757,54.47,38.391,56.379,30.262,56.379"/> <path fill="#FFD34B" d="M15.662,44.11v6.563c0,2.946,8.265,5.336,18.458,5.336c10.194,0,18.458-2.39,18.458-5.336V44.11H15.662z"/> <path fill="#E5BE44" d="M20.24,44.11h-2.163v9.015c0.003,0.063,0.004,0.127,0.008,0.191c0.616,0.311,1.341,0.602,2.155,0.87V44.11z "/> <path fill="#E5BE44" d="M21.321,44.11h-0.648v10.213c0.21,0.065,0.426,0.128,0.648,0.19V44.11z"/> <path fill="#E5BE44" d="M22.835,44.11h-0.973v10.546c0.312,0.08,0.642,0.155,0.973,0.23V44.11z"/> <path fill="#E5BE44" d="M30.244,44.11h-2.487v11.569c0.803,0.085,1.637,0.152,2.487,0.203V44.11z"/> <path fill="#E5BE44" d="M32.19,44.11h-1.026v11.826c0.338,0.015,0.682,0.026,1.026,0.037V44.11z"/> <path fill="#E5BE44" d="M37.328,44.11h-0.865v11.854c0.291-0.012,0.579-0.024,0.865-0.039V44.11z"/> <path fill="#E5BE44" d="M38.789,44.11h-0.811v11.78c0.272-0.02,0.543-0.036,0.811-0.057V44.11z"/> <path fill="#E5BE44" d="M40.843,44.11h-1.676v11.693c0.571-0.048,1.129-0.104,1.676-0.164V44.11z"/> <path fill="#E5BE44" d="M48.9,44.11h-1.838v10.363c0.664-0.188,1.278-0.394,1.838-0.61V44.11z"/> <path fill="#E5BE44" d="M49.225,44.11v9.624c2.109-0.866,3.352-1.921,3.352-3.061V44.11H49.225z"/> <path fill="#FFD34B" d="M52.578,44.11c0,2.949-8.264,5.337-18.457,5.337c-10.194,0-18.459-2.388-18.459-5.337 c0-2.946,8.265-5.335,18.459-5.335C44.313,38.775,52.578,41.164,52.578,44.11"/> <path fill="#F0C746" d="M32.874,44.478c-2.465-1.413-4.659-3.174-6.552-5.203c-6.295,0.849-10.66,2.695-10.66,4.835 c0,2.949,8.265,5.337,18.459,5.337c5.2,0,9.895-0.622,13.25-1.624C42.34,47.755,37.397,47.074,32.874,44.478"/> <path fill="#FFFFFF" d="M34.12,40.2c-8.413,0-14.064,2.022-14.064,3.91c0,1.891,5.651,3.913,14.064,3.913 c8.412,0,14.063-2.022,14.063-3.913C48.183,42.222,42.532,40.2,34.12,40.2 M34.12,48.456c-8.13,0-14.497-1.909-14.497-4.346 c0-2.434,6.367-4.344,14.497-4.344c8.129,0,14.495,1.91,14.495,4.344C48.615,46.547,42.249,48.456,34.12,48.456"/> <path fill="#FFD34B" d="M49.518,72.051v6.563c0,2.945,8.265,5.336,18.458,5.336c10.194,0,18.458-2.391,18.458-5.336v-6.563H49.518z "/> <path fill="#E5BE44" d="M54.097,72.051h-2.163v9.015c0.003,0.063,0.004,0.127,0.008,0.191c0.616,0.311,1.341,0.602,2.155,0.87 V72.051z"/> <path fill="#E5BE44" d="M55.178,72.051h-0.648v10.213c0.21,0.065,0.426,0.128,0.648,0.19V72.051z"/> <path fill="#E5BE44" d="M56.692,72.051h-0.973v10.546c0.312,0.08,0.642,0.155,0.973,0.23V72.051z"/> <path fill="#E5BE44" d="M64.1,72.051h-2.487v11.569c0.803,0.084,1.637,0.152,2.487,0.203V72.051z"/> <path fill="#E5BE44" d="M66.047,72.051h-1.026v11.826c0.338,0.015,0.682,0.026,1.026,0.037V72.051z"/> <path fill="#E5BE44" d="M71.185,72.051h-0.865v11.854c0.291-0.012,0.579-0.024,0.865-0.039V72.051z"/> <path fill="#E5BE44" d="M72.645,72.051h-0.811v11.78c0.272-0.02,0.543-0.036,0.811-0.057V72.051z"/> <path fill="#E5BE44" d="M74.699,72.051h-1.676v11.692c0.571-0.047,1.129-0.103,1.676-0.164V72.051z"/> <path fill="#E5BE44" d="M82.756,72.051h-1.838v10.363c0.664-0.189,1.278-0.394,1.838-0.61V72.051z"/> <path fill="#E5BE44" d="M83.081,72.051v9.624c2.109-0.866,3.352-1.921,3.352-3.061v-6.563H83.081z"/> <path fill="#FFD34B" d="M86.434,72.051c0,2.949-8.264,5.337-18.457,5.337c-10.194,0-18.459-2.388-18.459-5.337 c0-2.946,8.265-5.335,18.459-5.335C78.169,66.716,86.434,69.105,86.434,72.051"/> <path fill="#F0C746" d="M66.729,72.42c-2.465-1.413-4.659-3.174-6.552-5.203c-6.295,0.85-10.66,2.695-10.66,4.835 c0,2.949,8.265,5.337,18.459,5.337c5.2,0,9.895-0.622,13.25-1.624C76.196,75.697,71.253,75.015,66.729,72.42"/> <path fill="#FFFFFF" d="M67.976,68.141c-8.413,0-14.064,2.022-14.064,3.909c0,1.892,5.651,3.914,14.064,3.914 c8.412,0,14.063-2.022,14.063-3.914C82.039,70.164,76.388,68.141,67.976,68.141 M67.976,76.397c-8.13,0-14.497-1.909-14.497-4.347 c0-2.434,6.367-4.344,14.497-4.344c8.129,0,14.495,1.91,14.495,4.344C82.471,74.488,76.105,76.397,67.976,76.397"/> <path fill="#FFD34B" d="M51.861,64.425v6.563c0,2.946,8.265,5.336,18.458,5.336c10.194,0,18.458-2.39,18.458-5.336v-6.563H51.861z" /> <path fill="#E5BE44" d="M56.44,64.425h-2.163v9.016c0.003,0.063,0.004,0.127,0.008,0.19c0.616,0.312,1.341,0.603,2.155,0.87V64.425 z"/> <path fill="#E5BE44" d="M57.521,64.425h-0.648v10.213c0.21,0.064,0.426,0.128,0.648,0.189V64.425z"/> <path fill="#E5BE44" d="M59.035,64.425h-0.973v10.546c0.312,0.08,0.642,0.155,0.973,0.229V64.425z"/> <path fill="#E5BE44" d="M66.443,64.425h-2.487v11.568c0.803,0.086,1.637,0.152,2.487,0.205V64.425z"/> <path fill="#E5BE44" d="M68.39,64.425h-1.026v11.826c0.337,0.015,0.682,0.025,1.026,0.037V64.425z"/> <path fill="#E5BE44" d="M73.528,64.425h-0.865v11.854c0.291-0.011,0.579-0.023,0.865-0.039V64.425z"/> <path fill="#E5BE44" d="M74.988,64.425h-0.811v11.779c0.272-0.019,0.543-0.035,0.811-0.055V64.425z"/> <path fill="#E5BE44" d="M77.042,64.425h-1.676v11.693c0.571-0.049,1.129-0.104,1.676-0.164V64.425z"/> <path fill="#E5BE44" d="M85.1,64.425h-1.838v10.363c0.664-0.189,1.278-0.394,1.838-0.61V64.425z"/> <path fill="#E5BE44" d="M85.424,64.425v9.624c2.109-0.866,3.352-1.921,3.352-3.062v-6.563H85.424z"/> <path fill="#FFD34B" d="M88.777,64.425c0,2.949-8.264,5.337-18.457,5.337c-10.194,0-18.459-2.388-18.459-5.337 c0-2.946,8.265-5.335,18.459-5.335C80.513,59.09,88.777,61.479,88.777,64.425"/> <path fill="#F0C746" d="M69.073,64.794c-2.465-1.413-4.659-3.174-6.552-5.203c-6.295,0.849-10.66,2.695-10.66,4.835 c0,2.949,8.265,5.337,18.459,5.337c5.2,0,9.895-0.622,13.25-1.624C78.54,68.07,73.597,67.389,69.073,64.794"/> <path fill="#FFFFFF" d="M70.319,60.515c-8.413,0-14.064,2.021-14.064,3.91c0,1.891,5.651,3.912,14.064,3.912 c8.412,0,14.063-2.021,14.063-3.912C84.382,62.537,78.731,60.515,70.319,60.515 M70.319,68.771c-8.13,0-14.497-1.909-14.497-4.346 c0-2.435,6.367-4.344,14.497-4.344c8.129,0,14.495,1.909,14.495,4.344C84.814,66.862,78.448,68.771,70.319,68.771"/> <path fill="#FFD34B" d="M49.419,56.379v6.563c0,2.946,8.265,5.336,18.458,5.336c10.194,0,18.458-2.39,18.458-5.336v-6.563H49.419z" /> <path fill="#E5BE44" d="M53.998,56.379h-2.163v9.016c0.003,0.063,0.004,0.127,0.008,0.19c0.616,0.312,1.341,0.603,2.155,0.87 V56.379z"/> <path fill="#E5BE44" d="M55.079,56.379h-0.648v10.213c0.21,0.065,0.426,0.129,0.648,0.19V56.379z"/> <path fill="#E5BE44" d="M56.593,56.379H55.62v10.547c0.312,0.08,0.642,0.154,0.973,0.229V56.379z"/> <path fill="#E5BE44" d="M64.001,56.379h-2.487v11.569c0.803,0.085,1.637,0.151,2.487,0.204V56.379z"/> <path fill="#E5BE44" d="M65.948,56.379h-1.026v11.826c0.337,0.016,0.682,0.026,1.026,0.037V56.379z"/> <path fill="#E5BE44" d="M71.085,56.379h-0.865v11.854c0.291-0.011,0.579-0.024,0.865-0.039V56.379z"/> <path fill="#E5BE44" d="M72.546,56.379h-0.811v11.78c0.272-0.019,0.543-0.036,0.811-0.056V56.379z"/> <path fill="#E5BE44" d="M74.601,56.379h-1.676v11.693c0.571-0.048,1.129-0.104,1.676-0.164V56.379z"/> <path fill="#E5BE44" d="M82.657,56.379h-1.838v10.362c0.664-0.188,1.278-0.392,1.838-0.608V56.379z"/> <path fill="#E5BE44" d="M82.982,56.379v9.624c2.109-0.866,3.352-1.921,3.352-3.061v-6.563H82.982z"/> <path fill="#FFD34B" d="M86.335,56.379c0,2.949-8.264,5.338-18.457,5.338c-10.194,0-18.459-2.389-18.459-5.338 c0-2.946,8.265-5.335,18.459-5.335C78.071,51.044,86.335,53.433,86.335,56.379"/> <path fill="#F0C746" d="M66.631,56.747c-2.465-1.413-4.659-3.174-6.552-5.203c-6.295,0.849-10.66,2.695-10.66,4.835 c0,2.949,8.265,5.338,18.459,5.338c5.2,0,9.895-0.623,13.25-1.625C76.098,60.024,71.155,59.343,66.631,56.747"/> <path fill="#FFFFFF" d="M67.877,52.468c-8.413,0-14.064,2.021-14.064,3.91c0,1.891,5.651,3.912,14.064,3.912 c8.412,0,14.063-2.021,14.063-3.912C81.94,54.49,76.29,52.468,67.877,52.468 M67.877,60.724c-8.13,0-14.497-1.909-14.497-4.346 c0-2.434,6.367-4.344,14.497-4.344c8.129,0,14.495,1.911,14.495,4.344C82.373,58.815,76.006,60.724,67.877,60.724"/> <path fill="#FFD34B" d="M53.277,50.452v6.563c0,2.945,8.265,5.336,18.458,5.336c10.194,0,18.458-2.391,18.458-5.336v-6.563H53.277z "/> <path fill="#E5BE44" d="M57.856,50.452h-2.163v9.014c0.003,0.063,0.004,0.128,0.008,0.191c0.616,0.312,1.341,0.603,2.155,0.87 V50.452z"/> <path fill="#E5BE44" d="M58.937,50.452h-0.648v10.213c0.21,0.064,0.426,0.127,0.648,0.189V50.452z"/> <path fill="#E5BE44" d="M60.451,50.452h-0.973v10.545c0.312,0.08,0.642,0.155,0.973,0.23V50.452z"/> <path fill="#E5BE44" d="M67.859,50.452h-2.487v11.569c0.803,0.085,1.637,0.152,2.487,0.204V50.452z"/> <path fill="#E5BE44" d="M69.806,50.452H68.78v11.826c0.337,0.015,0.682,0.026,1.026,0.037V50.452z"/> <path fill="#E5BE44" d="M74.944,50.452h-0.865v11.854c0.291-0.012,0.579-0.024,0.865-0.039V50.452z"/> <path fill="#E5BE44" d="M76.404,50.452h-0.811v11.78c0.272-0.02,0.543-0.036,0.811-0.057V50.452z"/> <path fill="#E5BE44" d="M78.458,50.452h-1.676v11.693c0.571-0.048,1.129-0.103,1.676-0.164V50.452z"/> <path fill="#E5BE44" d="M86.516,50.452h-1.838v10.363c0.664-0.188,1.278-0.394,1.838-0.61V50.452z"/> <path fill="#E5BE44" d="M86.84,50.452v9.624c2.109-0.865,3.352-1.921,3.352-3.061v-6.563H86.84z"/> <path fill="#FFD34B" d="M90.193,50.452c0,2.949-8.264,5.336-18.457,5.336c-10.194,0-18.459-2.388-18.459-5.336 c0-2.946,8.265-5.335,18.459-5.335C81.929,45.117,90.193,47.506,90.193,50.452"/> <path fill="#F0C746" d="M70.489,50.82c-2.465-1.413-4.659-3.174-6.552-5.203c-6.295,0.849-10.66,2.695-10.66,4.835 c0,2.949,8.265,5.336,18.459,5.336c5.2,0,9.895-0.621,13.25-1.623C79.956,54.097,75.013,53.416,70.489,50.82"/> <path fill="#FFFFFF" d="M71.735,46.542c-8.413,0-14.064,2.022-14.064,3.91c0,1.891,5.651,3.913,14.064,3.913 c8.412,0,14.063-2.022,14.063-3.913C85.798,48.564,80.147,46.542,71.735,46.542 M71.735,54.797c-8.13,0-14.497-1.909-14.497-4.346 c0-2.434,6.367-4.344,14.497-4.344c8.129,0,14.495,1.91,14.495,4.344C86.23,52.889,79.864,54.797,71.735,54.797"/> <path fill="#FFD34B" d="M55.403,42.58v6.563c0,2.946,8.265,5.336,18.458,5.336c10.194,0,18.458-2.39,18.458-5.336V42.58H55.403z"/> <path fill="#E5BE44" d="M59.982,42.58h-2.163v9.015c0.003,0.063,0.004,0.127,0.008,0.191c0.616,0.311,1.341,0.602,2.155,0.87V42.58 z"/> <path fill="#E5BE44" d="M61.063,42.58h-0.648v10.213c0.21,0.065,0.426,0.128,0.648,0.19V42.58z"/> <path fill="#E5BE44" d="M62.577,42.58h-0.973v10.546c0.312,0.08,0.642,0.155,0.973,0.23V42.58z"/> <path fill="#E5BE44" d="M69.985,42.58h-2.487v11.569c0.803,0.085,1.637,0.151,2.487,0.204V42.58z"/> <path fill="#E5BE44" d="M71.932,42.58h-1.026v11.826c0.338,0.016,0.682,0.026,1.026,0.037V42.58z"/> <path fill="#E5BE44" d="M77.07,42.58h-0.865v11.854c0.291-0.011,0.579-0.024,0.865-0.039V42.58z"/> <path fill="#E5BE44" d="M78.53,42.58h-0.811v11.78c0.272-0.019,0.543-0.036,0.811-0.056V42.58z"/> <path fill="#E5BE44" d="M80.584,42.58h-1.676v11.693c0.571-0.048,1.129-0.104,1.676-0.164V42.58z"/> <path fill="#E5BE44" d="M88.642,42.58h-1.838v10.363c0.664-0.189,1.277-0.393,1.838-0.61V42.58z"/> <path fill="#E5BE44" d="M88.966,42.58v9.624c2.109-0.866,3.352-1.921,3.352-3.061V42.58H88.966z"/> <path fill="#FFD34B" d="M92.319,42.58c0,2.949-8.264,5.337-18.457,5.337c-10.194,0-18.459-2.388-18.459-5.337 c0-2.946,8.265-5.335,18.459-5.335C84.055,37.245,92.319,39.634,92.319,42.58"/> <path fill="#F0C746" d="M72.615,42.948c-2.465-1.413-4.659-3.174-6.552-5.203c-6.295,0.849-10.66,2.695-10.66,4.835 c0,2.949,8.265,5.337,18.459,5.337c5.2,0,9.895-0.622,13.25-1.624C82.082,46.225,77.139,45.544,72.615,42.948"/> <path fill="#FFFFFF" d="M73.861,38.67c-8.413,0-14.065,2.022-14.065,3.91c0,1.891,5.652,3.913,14.065,3.913 c8.412,0,14.063-2.022,14.063-3.913C87.924,40.692,82.273,38.67,73.861,38.67 M73.861,46.926c-8.13,0-14.497-1.909-14.497-4.346 c0-2.434,6.367-4.344,14.497-4.344c8.129,0,14.495,1.91,14.495,4.344C88.356,45.017,81.99,46.926,73.861,46.926"/> <path fill="#FFD34B" d="M51.861,34.954v6.563c0,2.946,8.265,5.336,18.458,5.336c10.194,0,18.458-2.39,18.458-5.336v-6.563H51.861z" /> <path fill="#E5BE44" d="M56.44,34.954h-2.163v9.015c0.003,0.063,0.004,0.127,0.008,0.191c0.616,0.311,1.341,0.602,2.155,0.87 V34.954z"/> <path fill="#E5BE44" d="M57.521,34.954h-0.648v10.213c0.21,0.065,0.426,0.128,0.648,0.19V34.954z"/> <path fill="#E5BE44" d="M59.035,34.954h-0.973V45.5c0.312,0.08,0.642,0.155,0.973,0.23V34.954z"/> <path fill="#E5BE44" d="M66.443,34.954h-2.487v11.569c0.803,0.085,1.637,0.152,2.487,0.204V34.954z"/> <path fill="#E5BE44" d="M68.39,34.954h-1.026V46.78c0.337,0.015,0.682,0.026,1.026,0.037V34.954z"/> <path fill="#E5BE44" d="M73.528,34.954h-0.865v11.854c0.291-0.011,0.579-0.024,0.865-0.039V34.954z"/> <path fill="#E5BE44" d="M74.988,34.954h-0.811v11.78c0.272-0.019,0.543-0.036,0.811-0.056V34.954z"/> <path fill="#E5BE44" d="M77.042,34.954h-1.676v11.693c0.571-0.048,1.129-0.103,1.676-0.164V34.954z"/> <path fill="#E5BE44" d="M85.1,34.954h-1.838v10.363c0.664-0.189,1.278-0.393,1.838-0.61V34.954z"/> <path fill="#E5BE44" d="M85.424,34.954v9.624c2.109-0.866,3.352-1.921,3.352-3.061v-6.563H85.424z"/> <path fill="#FFD34B" d="M88.777,34.954c0,2.949-8.264,5.337-18.457,5.337c-10.194,0-18.459-2.388-18.459-5.337 c0-2.946,8.265-5.335,18.459-5.335C80.513,29.619,88.777,32.008,88.777,34.954"/> <path fill="#F0C746" d="M69.073,35.322c-2.465-1.413-4.659-3.174-6.552-5.203c-6.295,0.849-10.66,2.695-10.66,4.835 c0,2.949,8.265,5.337,18.459,5.337c5.2,0,9.895-0.622,13.25-1.624C78.54,38.599,73.597,37.918,69.073,35.322"/> <path fill="#FFFFFF" d="M70.319,31.044c-8.413,0-14.064,2.022-14.064,3.91c0,1.891,5.651,3.913,14.064,3.913 c8.412,0,14.063-2.022,14.063-3.913C84.382,33.066,78.731,31.044,70.319,31.044 M70.319,39.3c-8.13,0-14.497-1.909-14.497-4.346 c0-2.434,6.367-4.344,14.497-4.344c8.129,0,14.495,1.91,14.495,4.344C84.814,37.391,78.448,39.3,70.319,39.3"/> <path fill="#FFD34B" d="M54.466,27.328v6.563c0,2.946,8.265,5.336,18.458,5.336c10.194,0,18.458-2.39,18.458-5.336v-6.563H54.466z" /> <path fill="#E5BE44" d="M59.045,27.328h-2.163v9.015c0.003,0.063,0.004,0.127,0.008,0.191c0.616,0.311,1.341,0.602,2.155,0.87 V27.328z"/> <path fill="#E5BE44" d="M60.126,27.328h-0.648v10.213c0.21,0.065,0.426,0.128,0.648,0.19V27.328z"/> <path fill="#E5BE44" d="M61.64,27.328h-0.973v10.546c0.312,0.08,0.642,0.155,0.973,0.23V27.328z"/> <path fill="#E5BE44" d="M69.048,27.328h-2.487v11.569c0.803,0.085,1.637,0.152,2.487,0.204V27.328z"/> <path fill="#E5BE44" d="M70.995,27.328h-1.026v11.826c0.338,0.015,0.682,0.026,1.026,0.037V27.328z"/> <path fill="#E5BE44" d="M76.133,27.328h-0.865v11.854c0.291-0.011,0.579-0.024,0.865-0.039V27.328z"/> <path fill="#E5BE44" d="M77.593,27.328h-0.811v11.78c0.272-0.019,0.543-0.036,0.811-0.056V27.328z"/> <path fill="#E5BE44" d="M79.647,27.328h-1.676v11.693c0.571-0.048,1.129-0.103,1.676-0.164V27.328z"/> <path fill="#E5BE44" d="M87.705,27.328h-1.838v10.363c0.664-0.189,1.278-0.393,1.838-0.61V27.328z"/> <path fill="#E5BE44" d="M88.029,27.328v9.624c2.109-0.866,3.352-1.921,3.352-3.061v-6.563H88.029z"/> <path fill="#FFD34B" d="M91.382,27.328c0,2.949-8.264,5.337-18.457,5.337c-10.194,0-18.459-2.388-18.459-5.337 c0-2.946,8.265-5.335,18.459-5.335C83.118,21.993,91.382,24.382,91.382,27.328"/> <path fill="#F0C746" d="M71.678,27.696c-2.465-1.413-4.659-3.174-6.552-5.203c-6.295,0.849-10.66,2.695-10.66,4.835 c0,2.949,8.265,5.337,18.459,5.337c5.2,0,9.895-0.622,13.25-1.624C81.145,30.973,76.202,30.292,71.678,27.696"/> <path fill="#FFFFFF" d="M72.924,23.418c-8.413,0-14.064,2.022-14.064,3.91c0,1.891,5.651,3.913,14.064,3.913 c8.412,0,14.063-2.022,14.063-3.913C86.987,25.44,81.336,23.418,72.924,23.418 M72.924,31.674c-8.13,0-14.497-1.909-14.497-4.346 c0-2.434,6.367-4.344,14.497-4.344c8.129,0,14.495,1.91,14.495,4.344C87.419,29.765,81.054,31.674,72.924,31.674"/> <path fill="#FFD34B" d="M55.621,19.702v6.563c0,2.946,8.265,5.336,18.458,5.336c10.194,0,18.458-2.39,18.458-5.336v-6.563H55.621z" /> <path fill="#E5BE44" d="M60.199,19.702h-2.163v9.015c0.003,0.063,0.004,0.127,0.008,0.191c0.616,0.311,1.341,0.602,2.155,0.87 V19.702z"/> <path fill="#E5BE44" d="M61.28,19.702h-0.648v10.213c0.21,0.065,0.426,0.128,0.648,0.19V19.702z"/> <path fill="#E5BE44" d="M62.794,19.702h-0.973v10.546c0.312,0.08,0.642,0.155,0.973,0.23V19.702z"/> <path fill="#E5BE44" d="M70.203,19.702h-2.487v11.569c0.803,0.085,1.637,0.152,2.487,0.204V19.702z"/> <path fill="#E5BE44" d="M72.149,19.702h-1.026v11.826c0.338,0.015,0.682,0.026,1.026,0.037V19.702z"/> <path fill="#E5BE44" d="M77.287,19.702h-0.865v11.854c0.291-0.011,0.579-0.024,0.865-0.039V19.702z"/> <path fill="#E5BE44" d="M78.747,19.702h-0.811v11.78c0.272-0.019,0.543-0.036,0.811-0.056V19.702z"/> <path fill="#E5BE44" d="M80.802,19.702h-1.676v11.693c0.571-0.048,1.129-0.103,1.676-0.164V19.702z"/> <path fill="#E5BE44" d="M88.859,19.702h-1.838v10.363c0.664-0.189,1.278-0.393,1.838-0.61V19.702z"/> <path fill="#E5BE44" d="M89.184,19.702v9.624c2.109-0.866,3.352-1.921,3.352-3.061v-6.563H89.184z"/> <path fill="#FFD34B" d="M92.536,19.702c0,2.949-8.264,5.337-18.457,5.337c-10.194,0-18.459-2.388-18.459-5.337 c0-2.946,8.265-5.335,18.459-5.335C84.272,14.367,92.536,16.756,92.536,19.702"/> <path fill="#F0C746" d="M72.832,20.07c-2.465-1.413-4.659-3.174-6.552-5.203c-6.295,0.849-10.66,2.695-10.66,4.835 c0,2.949,8.265,5.337,18.459,5.337c5.2,0,9.895-0.622,13.25-1.624C82.299,23.347,77.356,22.666,72.832,20.07"/> <path fill="#FFFFFF" d="M74.079,15.792c-8.413,0-14.065,2.022-14.065,3.91c0,1.891,5.652,3.913,14.065,3.913 c8.412,0,14.063-2.022,14.063-3.913C88.142,17.814,82.491,15.792,74.079,15.792 M74.079,24.048c-8.13,0-14.497-1.908-14.497-4.346 c0-2.434,6.367-4.344,14.497-4.344c8.129,0,14.495,1.91,14.495,4.344C88.574,22.14,82.208,24.048,74.079,24.048"/> <path fill="#FFD34B" d="M89.804,72.051v6.563c0,2.945,8.265,5.336,18.458,5.336c10.194,0,18.458-2.391,18.458-5.336v-6.563H89.804z "/> <path fill="#E5BE44" d="M94.383,72.051H92.22v9.015c0.003,0.063,0.004,0.127,0.008,0.191c0.616,0.311,1.341,0.602,2.155,0.87 V72.051z"/> <path fill="#E5BE44" d="M95.464,72.051h-0.648v10.213c0.21,0.065,0.426,0.128,0.648,0.19V72.051z"/> <path fill="#E5BE44" d="M96.978,72.051h-0.973v10.546c0.312,0.08,0.642,0.155,0.973,0.23V72.051z"/> <path fill="#E5BE44" d="M104.387,72.051h-2.487v11.569c0.803,0.084,1.637,0.152,2.487,0.203V72.051z"/> <path fill="#E5BE44" d="M106.333,72.051h-1.026v11.826c0.337,0.015,0.682,0.026,1.026,0.037V72.051z"/> <path fill="#E5BE44" d="M111.471,72.051h-0.865v11.854c0.291-0.012,0.579-0.024,0.865-0.039V72.051z"/> <path fill="#E5BE44" d="M112.931,72.051h-0.811v11.78c0.272-0.02,0.543-0.036,0.811-0.057V72.051z"/> <path fill="#E5BE44" d="M114.986,72.051h-1.676v11.692c0.571-0.047,1.129-0.103,1.676-0.164V72.051z"/> <path fill="#E5BE44" d="M123.042,72.051h-1.838v10.363c0.664-0.189,1.278-0.394,1.838-0.61V72.051z"/> <path fill="#E5BE44" d="M123.368,72.051v9.624c2.109-0.866,3.352-1.921,3.352-3.061v-6.563H123.368z"/> <path fill="#FFD34B" d="M126.72,72.051c0,2.949-8.264,5.337-18.457,5.337c-10.194,0-18.459-2.388-18.459-5.337 c0-2.946,8.265-5.335,18.459-5.335C118.456,66.716,126.72,69.105,126.72,72.051"/> <path fill="#F0C746" d="M107.016,72.42c-2.465-1.413-4.659-3.174-6.552-5.203c-6.295,0.85-10.66,2.695-10.66,4.835 c0,2.949,8.265,5.337,18.459,5.337c5.2,0,9.895-0.622,13.25-1.624C116.483,75.697,111.54,75.015,107.016,72.42"/> <path fill="#FFFFFF" d="M108.263,68.141c-8.413,0-14.065,2.022-14.065,3.909c0,1.892,5.652,3.914,14.065,3.914 c8.412,0,14.063-2.022,14.063-3.914C122.326,70.164,116.675,68.141,108.263,68.141 M108.263,76.397 c-8.13,0-14.497-1.909-14.497-4.347c0-2.434,6.367-4.344,14.497-4.344c8.129,0,14.495,1.91,14.495,4.344 C122.758,74.488,116.392,76.397,108.263,76.397"/> <path fill="#FFD34B" d="M92.147,64.425v6.563c0,2.946,8.265,5.336,18.458,5.336c10.194,0,18.458-2.39,18.458-5.336v-6.563H92.147z" /> <path fill="#E5BE44" d="M96.726,64.425h-2.163v9.016c0.003,0.063,0.004,0.127,0.008,0.19c0.616,0.312,1.341,0.603,2.155,0.87 V64.425z"/> <path fill="#E5BE44" d="M97.807,64.425h-0.648v10.213c0.21,0.064,0.426,0.128,0.648,0.189V64.425z"/> <path fill="#E5BE44" d="M99.321,64.425h-0.973v10.546c0.312,0.08,0.642,0.155,0.973,0.229V64.425z"/> <path fill="#E5BE44" d="M106.73,64.425h-2.487v11.568c0.803,0.086,1.637,0.152,2.487,0.205V64.425z"/> <path fill="#E5BE44" d="M108.676,64.425h-1.026v11.826c0.338,0.015,0.682,0.025,1.026,0.037V64.425z"/> <path fill="#E5BE44" d="M113.814,64.425h-0.865v11.854c0.291-0.011,0.579-0.023,0.865-0.039V64.425z"/> <path fill="#E5BE44" d="M115.274,64.425h-0.811v11.779c0.272-0.019,0.543-0.035,0.811-0.055V64.425z"/> <path fill="#E5BE44" d="M117.329,64.425h-1.676v11.693c0.571-0.049,1.129-0.104,1.676-0.164V64.425z"/> <path fill="#E5BE44" d="M125.386,64.425h-1.838v10.363c0.664-0.189,1.278-0.394,1.838-0.61V64.425z"/> <path fill="#E5BE44" d="M125.711,64.425v9.624c2.109-0.866,3.352-1.921,3.352-3.062v-6.563H125.711z"/> <path fill="#FFD34B" d="M129.063,64.425c0,2.949-8.263,5.337-18.456,5.337c-10.194,0-18.459-2.388-18.459-5.337 c0-2.946,8.265-5.335,18.459-5.335C120.799,59.09,129.063,61.479,129.063,64.425"/> <path fill="#F0C746" d="M109.359,64.794c-2.465-1.413-4.659-3.174-6.552-5.203c-6.295,0.849-10.66,2.695-10.66,4.835 c0,2.949,8.265,5.337,18.459,5.337c5.2,0,9.895-0.622,13.25-1.624C118.826,68.07,113.883,67.389,109.359,64.794"/> <path fill="#FFFFFF" d="M110.606,60.515c-8.413,0-14.064,2.021-14.064,3.91c0,1.891,5.651,3.912,14.064,3.912 c8.412,0,14.063-2.021,14.063-3.912C124.669,62.537,119.018,60.515,110.606,60.515 M110.606,68.771 c-8.13,0-14.497-1.909-14.497-4.346c0-2.435,6.367-4.344,14.497-4.344c8.129,0,14.495,1.909,14.495,4.344 C125.101,66.862,118.735,68.771,110.606,68.771"/> <path fill="#FFD34B" d="M129.253,72.051v6.563c0,2.945,8.265,5.336,18.458,5.336s18.458-2.391,18.458-5.336v-6.563H129.253z"/> <path fill="#E5BE44" d="M133.832,72.051h-2.164v9.015c0.004,0.063,0.004,0.127,0.008,0.191c0.617,0.311,1.342,0.602,2.156,0.87 V72.051z"/> <path fill="#E5BE44" d="M134.912,72.051h-0.647v10.213c0.21,0.065,0.426,0.128,0.647,0.19V72.051z"/> <path fill="#E5BE44" d="M136.427,72.051h-0.974v10.546c0.313,0.08,0.643,0.155,0.974,0.23V72.051z"/> <path fill="#E5BE44" d="M143.835,72.051h-2.487v11.569c0.803,0.084,1.637,0.152,2.487,0.203V72.051z"/> <path fill="#E5BE44" d="M145.781,72.051h-1.025v11.826c0.338,0.015,0.682,0.026,1.025,0.037V72.051z"/> <path fill="#E5BE44" d="M150.92,72.051h-0.865v11.854c0.291-0.012,0.578-0.024,0.865-0.039V72.051z"/> <path fill="#E5BE44" d="M152.379,72.051h-0.811v11.78c0.271-0.02,0.543-0.036,0.811-0.057V72.051z"/> <path fill="#E5BE44" d="M154.434,72.051h-1.676v11.692c0.571-0.047,1.129-0.103,1.676-0.164V72.051z"/> <path fill="#E5BE44" d="M162.491,72.051h-1.838v10.363c0.663-0.189,1.278-0.394,1.838-0.61V72.051z"/> <path fill="#E5BE44" d="M162.816,72.051v9.624c2.109-0.866,3.352-1.921,3.352-3.061v-6.563H162.816z"/> <path fill="#FFD34B" d="M166.168,72.051c0,2.949-8.264,5.337-18.457,5.337s-18.459-2.388-18.459-5.337 c0-2.946,8.266-5.335,18.459-5.335S166.168,69.105,166.168,72.051"/> <path fill="#F0C746" d="M146.465,72.42c-2.465-1.413-4.66-3.174-6.553-5.203c-6.295,0.85-10.66,2.695-10.66,4.835 c0,2.949,8.266,5.337,18.459,5.337c5.201,0,9.896-0.622,13.25-1.624C155.932,75.697,150.988,75.015,146.465,72.42"/> <path fill="#FFFFFF" d="M147.711,68.141c-8.412,0-14.064,2.022-14.064,3.909c0,1.892,5.652,3.914,14.064,3.914 s14.063-2.022,14.063-3.914C161.773,70.164,156.123,68.141,147.711,68.141 M147.711,76.397c-8.13,0-14.497-1.909-14.497-4.347 c0-2.434,6.367-4.344,14.497-4.344c8.129,0,14.495,1.91,14.495,4.344C162.206,74.488,155.84,76.397,147.711,76.397"/> <path fill="#FFD34B" d="M127.721,63.434v6.563c0,2.945,8.265,5.336,18.458,5.336c10.194,0,18.458-2.391,18.458-5.336v-6.563 H127.721z"/> <path fill="#E5BE44" d="M132.299,63.434h-2.162v9.015c0.002,0.063,0.004,0.127,0.008,0.191c0.615,0.311,1.341,0.602,2.154,0.87 V63.434z"/> <path fill="#E5BE44" d="M133.38,63.434h-0.647v10.213c0.209,0.065,0.426,0.128,0.647,0.19V63.434z"/> <path fill="#E5BE44" d="M134.895,63.434h-0.973V73.98c0.312,0.08,0.642,0.155,0.973,0.23V63.434z"/> <path fill="#E5BE44" d="M142.303,63.434h-2.486v11.569c0.803,0.085,1.637,0.152,2.486,0.203V63.434z"/> <path fill="#E5BE44" d="M144.25,63.434h-1.026V75.26c0.337,0.015,0.682,0.026,1.026,0.037V63.434z"/> <path fill="#E5BE44" d="M149.387,63.434h-0.865v11.854c0.291-0.012,0.58-0.024,0.865-0.039V63.434z"/> <path fill="#E5BE44" d="M150.848,63.434h-0.812v11.78c0.272-0.02,0.543-0.036,0.812-0.057V63.434z"/> <path fill="#E5BE44" d="M152.902,63.434h-1.677v11.693c0.571-0.048,1.13-0.104,1.677-0.164V63.434z"/> <path fill="#E5BE44" d="M160.959,63.434h-1.838v10.363c0.664-0.189,1.277-0.394,1.838-0.61V63.434z"/> <path fill="#E5BE44" d="M161.283,63.434v9.624c2.109-0.865,3.353-1.921,3.353-3.061v-6.563H161.283z"/> <path fill="#FFD34B" d="M164.637,63.434c0,2.949-8.265,5.337-18.457,5.337c-10.195,0-18.459-2.388-18.459-5.337 c0-2.946,8.264-5.335,18.459-5.335C156.372,58.099,164.637,60.488,164.637,63.434"/> <path fill="#F0C746" d="M144.932,63.802c-2.465-1.413-4.658-3.174-6.552-5.203c-6.295,0.85-10.659,2.695-10.659,4.835 c0,2.949,8.264,5.337,18.459,5.337c5.199,0,9.895-0.621,13.25-1.623C154.398,67.08,149.456,66.398,144.932,63.802"/> <path fill="#FFFFFF" d="M146.179,59.524c-8.413,0-14.063,2.021-14.063,3.909c0,1.892,5.65,3.914,14.063,3.914 c8.412,0,14.063-2.022,14.063-3.914C160.242,61.546,154.591,59.524,146.179,59.524 M146.179,67.78 c-8.13,0-14.497-1.908-14.497-4.347c0-2.434,6.367-4.344,14.497-4.344c8.129,0,14.495,1.91,14.495,4.344 C160.674,65.872,154.308,67.78,146.179,67.78"/> <path fill="#FFD34B" d="M89.706,56.379v6.563c0,2.946,8.265,5.336,18.458,5.336c10.194,0,18.458-2.39,18.458-5.336v-6.563H89.706z" /> <path fill="#E5BE44" d="M94.284,56.379h-2.163v9.016c0.003,0.063,0.004,0.127,0.008,0.19c0.616,0.312,1.341,0.603,2.155,0.87 V56.379z"/> <path fill="#E5BE44" d="M95.365,56.379h-0.648v10.213c0.21,0.065,0.426,0.129,0.648,0.19V56.379z"/> <path fill="#E5BE44" d="M96.879,56.379h-0.973v10.547c0.312,0.08,0.642,0.154,0.973,0.229V56.379z"/> <path fill="#E5BE44" d="M104.288,56.379h-2.487v11.569c0.803,0.085,1.637,0.151,2.487,0.204V56.379z"/> <path fill="#E5BE44" d="M106.234,56.379h-1.026v11.826c0.337,0.016,0.682,0.026,1.026,0.037V56.379z"/> <path fill="#E5BE44" d="M111.372,56.379h-0.865v11.854c0.291-0.011,0.579-0.024,0.865-0.039V56.379z"/> <path fill="#E5BE44" d="M112.833,56.379h-0.811v11.78c0.272-0.019,0.543-0.036,0.811-0.056V56.379z"/> <path fill="#E5BE44" d="M114.887,56.379h-1.676v11.693c0.571-0.048,1.129-0.104,1.676-0.164V56.379z"/> <path fill="#E5BE44" d="M122.944,56.379h-1.838v10.362c0.664-0.188,1.278-0.392,1.838-0.608V56.379z"/> <path fill="#E5BE44" d="M123.269,56.379v9.624c2.109-0.866,3.352-1.921,3.352-3.061v-6.563H123.269z"/> <path fill="#FFD34B" d="M126.621,56.379c0,2.949-8.264,5.338-18.457,5.338c-10.194,0-18.459-2.389-18.459-5.338 c0-2.946,8.265-5.335,18.459-5.335C118.357,51.044,126.621,53.433,126.621,56.379"/> <path fill="#F0C746" d="M106.917,56.747c-2.465-1.413-4.659-3.174-6.552-5.203c-6.295,0.849-10.66,2.695-10.66,4.835 c0,2.949,8.265,5.338,18.459,5.338c5.2,0,9.895-0.623,13.25-1.625C116.384,60.024,111.441,59.343,106.917,56.747"/> <path fill="#FFFFFF" d="M108.164,52.468c-8.413,0-14.064,2.021-14.064,3.91c0,1.891,5.651,3.912,14.064,3.912 c8.412,0,14.063-2.021,14.063-3.912C122.227,54.49,116.576,52.468,108.164,52.468 M108.164,60.724 c-8.13,0-14.497-1.909-14.497-4.346c0-2.434,6.367-4.344,14.497-4.344c8.129,0,14.495,1.911,14.495,4.344 C122.659,58.815,116.293,60.724,108.164,60.724"/> <path fill="#FFD34B" d="M93.564,50.452v6.563c0,2.945,8.265,5.336,18.458,5.336c10.194,0,18.458-2.391,18.458-5.336v-6.563H93.564z "/> <path fill="#E5BE44" d="M98.142,50.452h-2.163v9.014c0.003,0.063,0.004,0.128,0.008,0.191c0.616,0.312,1.341,0.603,2.155,0.87 V50.452z"/> <path fill="#E5BE44" d="M99.223,50.452h-0.648v10.213c0.21,0.064,0.426,0.127,0.648,0.189V50.452z"/> <path fill="#E5BE44" d="M100.737,50.452h-0.973v10.545c0.312,0.08,0.642,0.155,0.973,0.23V50.452z"/> <path fill="#E5BE44" d="M108.146,50.452h-2.487v11.569c0.803,0.085,1.637,0.152,2.487,0.204V50.452z"/> <path fill="#E5BE44" d="M110.093,50.452h-1.026v11.826c0.337,0.015,0.682,0.026,1.026,0.037V50.452z"/> <path fill="#E5BE44" d="M115.23,50.452h-0.865v11.854c0.291-0.012,0.579-0.024,0.865-0.039V50.452z"/> <path fill="#E5BE44" d="M116.69,50.452h-0.811v11.78c0.272-0.02,0.543-0.036,0.811-0.057V50.452z"/> <path fill="#E5BE44" d="M118.745,50.452h-1.676v11.693c0.571-0.048,1.129-0.103,1.676-0.164V50.452z"/> <path fill="#E5BE44" d="M126.802,50.452h-1.838v10.363c0.664-0.188,1.278-0.394,1.838-0.61V50.452z"/> <path fill="#E5BE44" d="M127.127,50.452v9.624c2.109-0.865,3.352-1.921,3.352-3.061v-6.563H127.127z"/> <path fill="#FFD34B" d="M130.479,50.452c0,2.949-8.264,5.336-18.457,5.336c-10.194,0-18.459-2.388-18.459-5.336 c0-2.946,8.265-5.335,18.459-5.335C122.215,45.117,130.479,47.506,130.479,50.452"/> <path fill="#F0C746" d="M110.775,50.82c-2.465-1.413-4.659-3.174-6.552-5.203c-6.295,0.849-10.66,2.695-10.66,4.835 c0,2.949,8.265,5.336,18.459,5.336c5.2,0,9.895-0.621,13.25-1.623C120.242,54.097,115.299,53.416,110.775,50.82"/> <path fill="#FFFFFF" d="M112.022,46.542c-8.413,0-14.064,2.022-14.064,3.91c0,1.891,5.651,3.913,14.064,3.913 c8.412,0,14.063-2.022,14.063-3.913C126.085,48.564,120.434,46.542,112.022,46.542 M112.022,54.797 c-8.13,0-14.497-1.909-14.497-4.346c0-2.434,6.367-4.344,14.497-4.344c8.129,0,14.496,1.91,14.496,4.344 C126.518,52.889,120.151,54.797,112.022,54.797"/> <path fill="#FFD34B" d="M95.689,42.58v6.563c0,2.946,8.265,5.336,18.458,5.336c10.194,0,18.458-2.39,18.458-5.336V42.58H95.689z"/> <path fill="#E5BE44" d="M100.268,42.58h-2.163v9.015c0.003,0.063,0.004,0.127,0.008,0.191c0.616,0.311,1.341,0.602,2.155,0.87 V42.58z"/> <path fill="#E5BE44" d="M101.349,42.58h-0.648v10.213c0.21,0.065,0.426,0.128,0.648,0.19V42.58z"/> <path fill="#E5BE44" d="M102.863,42.58h-0.973v10.546c0.312,0.08,0.642,0.155,0.973,0.23V42.58z"/> <path fill="#E5BE44" d="M110.272,42.58h-2.487v11.569c0.803,0.085,1.637,0.151,2.487,0.204V42.58z"/> <path fill="#E5BE44" d="M112.218,42.58h-1.026v11.826c0.337,0.016,0.682,0.026,1.026,0.037V42.58z"/> <path fill="#E5BE44" d="M117.356,42.58h-0.865v11.854c0.291-0.011,0.579-0.024,0.865-0.039V42.58z"/> <path fill="#E5BE44" d="M118.816,42.58h-0.811v11.78c0.272-0.019,0.543-0.036,0.811-0.056V42.58z"/> <path fill="#E5BE44" d="M120.871,42.58h-1.676v11.693c0.571-0.048,1.129-0.104,1.676-0.164V42.58z"/> <path fill="#E5BE44" d="M128.928,42.58h-1.838v10.363c0.664-0.189,1.277-0.393,1.838-0.61V42.58z"/> <path fill="#E5BE44" d="M129.253,42.58v9.624c2.108-0.866,3.353-1.921,3.353-3.061V42.58H129.253z"/> <path fill="#FFD34B" d="M132.605,42.58c0,2.949-8.264,5.337-18.457,5.337c-10.194,0-18.459-2.388-18.459-5.337 c0-2.946,8.265-5.335,18.459-5.335C124.341,37.245,132.605,39.634,132.605,42.58"/> <path fill="#F0C746" d="M112.901,42.948c-2.465-1.413-4.659-3.174-6.552-5.203c-6.295,0.849-10.66,2.695-10.66,4.835 c0,2.949,8.265,5.337,18.459,5.337c5.2,0,9.895-0.622,13.25-1.624C122.368,46.225,117.425,45.544,112.901,42.948"/> <path fill="#FFFFFF" d="M114.148,38.67c-8.413,0-14.064,2.022-14.064,3.91c0,1.891,5.651,3.913,14.064,3.913 c8.412,0,14.063-2.022,14.063-3.913C128.211,40.692,122.56,38.67,114.148,38.67 M114.148,46.926c-8.13,0-14.497-1.909-14.497-4.346 c0-2.434,6.367-4.344,14.497-4.344c8.129,0,14.495,1.91,14.495,4.344C128.643,45.017,122.277,46.926,114.148,46.926"/> <path fill="#FFD34B" d="M92.147,34.954v6.563c0,2.946,8.265,5.336,18.458,5.336c10.194,0,18.458-2.39,18.458-5.336v-6.563H92.147z" /> <path fill="#E5BE44" d="M96.726,34.954h-2.163v9.015c0.003,0.063,0.004,0.127,0.008,0.191c0.616,0.311,1.341,0.602,2.155,0.87 V34.954z"/> <path fill="#E5BE44" d="M97.807,34.954h-0.648v10.213c0.21,0.065,0.426,0.128,0.648,0.19V34.954z"/> <path fill="#E5BE44" d="M99.321,34.954h-0.973V45.5c0.312,0.08,0.642,0.155,0.973,0.23V34.954z"/> <path fill="#E5BE44" d="M106.73,34.954h-2.487v11.569c0.803,0.085,1.637,0.152,2.487,0.204V34.954z"/> <path fill="#E5BE44" d="M108.676,34.954h-1.026V46.78c0.338,0.015,0.682,0.026,1.026,0.037V34.954z"/> <path fill="#E5BE44" d="M113.814,34.954h-0.865v11.854c0.291-0.011,0.579-0.024,0.865-0.039V34.954z"/> <path fill="#E5BE44" d="M115.274,34.954h-0.811v11.78c0.272-0.019,0.543-0.036,0.811-0.056V34.954z"/> <path fill="#E5BE44" d="M117.329,34.954h-1.676v11.693c0.571-0.048,1.129-0.103,1.676-0.164V34.954z"/> <path fill="#E5BE44" d="M125.386,34.954h-1.838v10.363c0.664-0.189,1.278-0.393,1.838-0.61V34.954z"/> <path fill="#E5BE44" d="M125.711,34.954v9.624c2.109-0.866,3.352-1.921,3.352-3.061v-6.563H125.711z"/> <path fill="#FFD34B" d="M129.063,34.954c0,2.949-8.263,5.337-18.456,5.337c-10.194,0-18.459-2.388-18.459-5.337 c0-2.946,8.265-5.335,18.459-5.335C120.799,29.619,129.063,32.008,129.063,34.954"/> <path fill="#F0C746" d="M109.359,35.322c-2.465-1.413-4.659-3.174-6.552-5.203c-6.295,0.849-10.66,2.695-10.66,4.835 c0,2.949,8.265,5.337,18.459,5.337c5.2,0,9.895-0.622,13.25-1.624C118.826,38.599,113.883,37.918,109.359,35.322"/> <path fill="#FFFFFF" d="M110.606,31.044c-8.413,0-14.064,2.022-14.064,3.91c0,1.891,5.651,3.913,14.064,3.913 c8.412,0,14.063-2.022,14.063-3.913C124.669,33.066,119.018,31.044,110.606,31.044 M110.606,39.3 c-8.13,0-14.497-1.909-14.497-4.346c0-2.434,6.367-4.344,14.497-4.344c8.129,0,14.495,1.91,14.495,4.344 C125.101,37.391,118.735,39.3,110.606,39.3"/> </g> </svg> 