<svg viewBox="0 0 556.47 166.89" xmlns="http://www.w3.org/2000/svg"><g fill="#fff" opacity=".9"><path d="m85.81 101.29a17.86 17.86 0 0 1 -17.81-17.85 2.49 2.49 0 0 1 5 0 12.88 12.88 0 0 0 23.16 7.66 2.49 2.49 0 0 1 4 3 18 18 0 0 1 -14.35 7.19z"/><path d="m96.74 75.15a2.47 2.47 0 0 1 -1.74-.75 12.88 12.88 0 0 0 -18.27-.06 2.49 2.49 0 1 1 -3.52-3.52 17.84 17.84 0 0 1 25.33.09 2.49 2.49 0 0 1 -1.77 4.24z"/><path d="m85.81 112.81a2.49 2.49 0 1 1 0-5 24.4 24.4 0 1 0 -14.94-43.65 2.49 2.49 0 1 1 -3-3.94 29.07 29.07 0 0 1 18-6.14 29.37 29.37 0 1 1 0 58.73z"/><path d="m64.74 102.63a2.51 2.51 0 0 1 -1.95-.94 29.06 29.06 0 0 1 -6.35-18.25 29.92 29.92 0 0 1 .56-5.91 2.49 2.49 0 1 1 4.88 1 24.42 24.42 0 0 0 -.5 4.91 24.13 24.13 0 0 0 5.28 15.15 2.5 2.5 0 0 1 -2 4z"/><path d="m113.79 114.07a2.5 2.5 0 0 1 -1.75-4.26 37.2 37.2 0 0 0 -44.21-58.93 2.49 2.49 0 0 1 -2.41-4.36 42.17 42.17 0 0 1 50.13 66.82 2.49 2.49 0 0 1 -1.76.73z"/><path d="m70.36 122.5a2.59 2.59 0 0 1 -1-.2 42.2 42.2 0 0 1 -17-64.65 2.49 2.49 0 0 1 3.94 3.05 37.22 37.22 0 0 0 14.95 57 2.49 2.49 0 0 1 -1 4.78z"/><path d="m85.78 137.11a53.68 53.68 0 0 1 -22.3-4.84 2.49 2.49 0 1 1 2.07-4.52 48.93 48.93 0 0 0 44-1.78 2.49 2.49 0 0 1 2.42 4.35 53.88 53.88 0 0 1 -26.19 6.79z"/><path d="m40.31 109.42a2.48 2.48 0 0 1 -2.21-1.35 53.69 53.69 0 0 1 70-73.46 2.49 2.49 0 1 1 -2.07 4.53 48.71 48.71 0 0 0 -63.54 66.65 2.49 2.49 0 0 1 -2.21 3.63z"/><path d="m110.78 130.64a2.49 2.49 0 0 1 -1.21-4.67 48.28 48.28 0 0 0 20.54-22.27 2.49 2.49 0 1 1 4.52 2.07 53.22 53.22 0 0 1 -22.63 24.55 2.52 2.52 0 0 1 -1.22.32z"/><path d="m137.36 85.59a2.49 2.49 0 0 1 -2.49-2.43 48.28 48.28 0 0 0 -10.08-28.58 2.49 2.49 0 0 1 4-3 53.26 53.26 0 0 1 11.11 31.5 2.49 2.49 0 0 1 -2.43 2.54z"/><path d="m85.81 149.81a65.94 65.94 0 0 1 -46.93-19.43 2.49 2.49 0 0 1 3.52-3.52 61.39 61.39 0 1 0 43.41-104.81 2.49 2.49 0 0 1 0-5 66.37 66.37 0 0 1 0 132.74z"/><path d="m23.22 98.81a2.49 2.49 0 0 1 -2.43-2 66.47 66.47 0 0 1 33.51-71.81 2.49 2.49 0 1 1 2.37 4.37 61.48 61.48 0 0 0 -31 66.43 2.49 2.49 0 0 1 -1.93 2.94 2.94 2.94 0 0 1 -.52.07z"/></g><g stroke-miterlimit="10"><path d="m89.92 80.43a25.12 25.12 0 0 1 -10.1-5.88 12.55 12.55 0 0 1 -3.82-9.21 12.76 12.76 0 0 1 4-9.27 13.3 13.3 0 0 1 9.84-4 13.61 13.61 0 0 1 9.93 4.1 14.11 14.11 0 0 1 3.37 5.92l-6.57 2.56a13 13 0 0 0 -2.19-4.26 6.1 6.1 0 0 0 -9-.06 6.79 6.79 0 0 0 -2 5 7.12 7.12 0 0 0 2 5.11 21.48 21.48 0 0 0 5.76 3.73 28.75 28.75 0 0 1 11.69 7 17.6 17.6 0 0 1 .06 25.29 18.68 18.68 0 0 1 -26.27-.14 18.57 18.57 0 0 1 -5.19-10.83l7.06-2.56q.64 6.38 3.61 9.29a10.5 10.5 0 0 0 7.71 3.25 10.77 10.77 0 0 0 7.85-3.35 12 12 0 0 0 .06-16.53 24.33 24.33 0 0 0 -7.8-5.16z" fill="#4b7851" stroke="#4b7851" stroke-width="2"/><path d="m172.84 60.79a29.61 29.61 0 0 1 0 42.17 30.71 30.71 0 0 1 -43.08 0 29.59 29.59 0 0 1 0-42.17 30.66 30.66 0 0 1 43.08 0zm-21.56-2.43a22 22 0 0 0 -16.15 6.84 22.68 22.68 0 0 0 -6.81 16.65 22.72 22.72 0 0 0 6.81 16.71 22.58 22.58 0 0 0 32.34 0 22.72 22.72 0 0 0 6.81-16.71 22.68 22.68 0 0 0 -6.81-16.65 22.09 22.09 0 0 0 -16.19-6.84z" fill="#4b7851" stroke="#4b7851" stroke-width="2"/><path d="m196.7 111.14v-58.38h7.3v52h21v6.37z" fill="#4b7851" stroke="#4b7851" stroke-width="2"/><path d="m262.85 52.76 21.15 58.38h-7.63l-8.8-24.26h-15.88l-9 24.26h-7.67l21.42-58.38zm2.39 27.79-5.6-15.5-5.64 15.5z" fill="#4b7851" stroke="#4b7851" stroke-width="2"/><path d="m310.82 92h-6.82v19.11h-7.34v-58.35h16.71a20.54 20.54 0 0 1 12.21 5.92 18.65 18.65 0 0 1 5.72 13.68 19 19 0 0 1 -5.88 13.87c-2.6 2.62-4.89 4.18-6.89 4.66l13.1 20.25h-8.48zm-6.82-32.83v26.45h7.23a12.25 12.25 0 0 0 8.92-3.79 13.61 13.61 0 0 0 0-18.89 12.3 12.3 0 0 0 -8.92-3.77z" fill="#4b7851" stroke="#4b7851" stroke-width="2"/><path d="m389.37 52.76-15.37 22.31 25.23 36.07h-8.55l-21-30.06-3.81 5.47v24.59h-7.34v-58.38h7.34v21.58l15.05-21.58z" fill="#ffd34b" stroke="#ffd34b"/><path d="m418.89 52.76v58.38h-7.35v-58.38z" fill="#ffd34b" stroke="#ffd34b"/><path d="m454.36 59.13v52h-7.3v-52h-13.95v-6.37h35.17v6.37z" fill="#ffd34b" stroke="#ffd34b"/><path d="m502.34 52.76 21.13 58.38h-7.62l-8.85-24.26h-15.82l-9 24.26h-7.67l21.49-58.38zm2.39 27.79-5.6-15.5-5.63 15.5z" fill="#ffd34b" stroke="#ffd34b"/></g></svg>