<svg height="94" viewBox="0 0 279 94" width="279" xmlns="http://www.w3.org/2000/svg" xmlns:xlink="http://www.w3.org/1999/xlink"><mask id="a" fill="#fff"><path d="m.9626.5864h77.413v77.4136h-77.413z" fill="#fff" fill-rule="evenodd"/></mask><mask id="b" fill="#fff"><path d="m0 134.505h341.966v-134.505h-341.966z" fill="#fff" fill-rule="evenodd"/></mask><g fill="none" fill-rule="evenodd" transform="translate(-31 -41)"><path d="m78.3756 39.2934c0-21.377-17.33-38.707-38.706-38.707-21.378 0-38.707 17.33-38.707 38.707s17.329 38.707 38.707 38.707c21.376 0 38.706-17.33 38.706-38.707" fill="#ffd34b" mask="url(#a)" transform="translate(31 56.505)"/><g fill="#fff" transform="translate(34 59.505)"><path d="m36.6494 45.9868c-5.345 0-9.693-4.348-9.693-9.693 0-.747.605-1.352 1.352-1.352.746 0 1.351.605 1.351 1.352 0 3.854 3.136 6.99 6.99 6.99 2.236 0 4.285-1.032 5.62-2.832.445-.598 1.292-.724 1.891-.279s.725 1.291.279 1.891c-1.823 2.456-4.735 3.923-7.79 3.923"/><path d="m42.5873 31.7869c-.349 0-.698-.135-.962-.403-1.324-1.342-3.091-2.081-4.976-2.081-1.866 0-3.621.727-4.943 2.048-.527.528-1.383.528-1.911 0-.528-.527-.528-1.383 0-1.911 1.832-1.832 4.266-2.84 6.854-2.84 2.614 0 5.064 1.025 6.9 2.887.524.531.518 1.387-.013 1.911-.263.26-.607.389-.949.389"/><path d="m36.6494 52.242c-.746 0-1.351-.605-1.351-1.351 0-.747.605-1.352 1.351-1.352 7.304 0 13.246-5.942 13.246-13.246 0-7.303-5.942-13.245-13.246-13.245-2.965 0-5.769.959-8.108 2.771-.589.456-1.438.35-1.896-.241-.458-.59-.349-1.439.241-1.896 2.817-2.183 6.193-3.336 9.763-3.336 8.794 0 15.949 7.154 15.949 15.947 0 8.794-7.155 15.949-15.949 15.949"/><path d="m25.2093 46.7107c-.398 0-.793-.176-1.059-.511-2.257-2.845-3.449-6.27-3.449-9.906 0-1.083.108-2.163.324-3.213.15-.732.861-1.205 1.596-1.052.731.15 1.202.864 1.052 1.595-.179.871-.27 1.77-.27 2.67 0 3.019.991 5.864 2.864 8.225.464.585.366 1.436-.219 1.899-.248.197-.545.293-.839.293"/><path d="m51.8483 52.9224c-.347 0-.694-.133-.958-.399-.527-.528-.524-1.384.005-1.911 3.837-3.818 5.951-8.903 5.951-14.319 0-11.137-9.06-20.196-20.197-20.196-3.414 0-6.789.868-9.761 2.511-.652.362-1.476.126-1.837-.528s-.124-1.476.529-1.837c3.371-1.864 7.199-2.849 11.069-2.849 12.627 0 22.9 10.272 22.9 22.899 0 6.14-2.396 11.906-6.748 16.236-.263.262-.609.393-.953.393"/><path d="m28.262 57.5014c-.175 0-.354-.035-.526-.108-8.495-3.593-13.985-11.875-13.985-21.1 0-5.124 1.653-9.967 4.781-14.007.456-.59 1.306-.698 1.896-.24.59.456.698 1.305.24 1.896-2.757 3.561-4.214 7.832-4.214 12.351 0 8.137 4.841 15.442 12.335 18.611.687.291 1.009 1.084.718 1.771-.217.516-.718.826-1.245.826"/><path d="m36.6349 65.4349c-4.134 0-8.271-.871-12.109-2.626-.679-.311-.978-1.112-.667-1.791.31-.679 1.112-.978 1.791-.668 7.63 3.49 16.564 3.13 23.902-.962.652-.364 1.476-.13 1.838.522.364.652.13 1.475-.522 1.839-4.395 2.45-9.311 3.686-14.233 3.686"/><path d="m11.9439 50.3996c-.49 0-.963-.267-1.202-.732-4.133-8.014-4.354-17.307-.608-25.497 6.685-14.62 24.017-21.078 38.639-14.393.679.31.978 1.112.668 1.791-.312.679-1.114.977-1.792.667-13.261-6.063-28.991-.207-35.057 13.059-3.399 7.43-3.198 15.862.552 23.134.342.664.082 1.479-.582 1.821-.198.102-.409.15-.618.15"/><path d="m50.2111 61.9195c-.475 0-.934-.25-1.182-.694-.364-.652-.129-1.475.523-1.838 4.937-2.751 8.794-6.933 11.154-12.095.311-.679 1.113-.978 1.792-.668.678.311.977 1.113.667 1.792-2.602 5.69-6.854 10.3-12.297 13.332-.209.116-.435.171-.657.171"/><path d="m64.6459 37.4595c-.733 0-1.334-.586-1.351-1.322-.123-5.651-2.016-11.017-5.474-15.517-.455-.592-.344-1.44.248-1.895.591-.455 1.44-.345 1.895.248 3.811 4.959 5.898 10.875 6.034 17.105.016.746-.575 1.365-1.322 1.381z"/><path d="m36.6494 72.3341c-9.626 0-18.677-3.749-25.484-10.556-.528-.528-.528-1.383 0-1.911s1.383-.528 1.911 0c6.297 6.296 14.669 9.764 23.573 9.764 18.383 0 33.338-14.955 33.338-33.338 0-18.382-14.955-33.337-33.338-33.337-.746 0-1.351-.606-1.351-1.352s.605-1.351 1.351-1.351c19.873 0 36.041 16.167 36.041 36.04s-16.168 36.041-36.041 36.041"/><path d="m2.665 44.6366c-.629 0-1.192-.441-1.322-1.08-.487-2.377-.734-4.821-.734-7.263 0-13.262 7.255-25.419 18.933-31.729.659-.355 1.477-.109 1.832.546.354.658.11 1.477-.546 1.832-10.805 5.837-17.516 17.084-17.516 29.351 0 2.261.228 4.521.678 6.72.15.731-.321 1.445-1.052 1.595-.092.019-.183.028-.273.028"/></g><path d="m72.8825 94.1599c-2.277-.748-4.105-1.813-5.486-3.194-1.38-1.381-2.071-3.047-2.071-5.001 0-1.908.716-3.586 2.148-5.033 1.432-1.446 3.213-2.17 5.342-2.17 2.1 0 3.899.742 5.397 2.225.778.764 1.389 1.836 1.829 3.216l-3.569 1.388c-.44-1.19-.837-1.96-1.189-2.313-.72-.734-1.542-1.101-2.468-1.101-.911 0-1.721.355-2.433 1.068-.713.713-1.07 1.62-1.07 2.72 0 1.088.368 2.013 1.103 2.776.763.735 1.805 1.41 3.127 2.027 2.526.822 4.641 2.085 6.344 3.789 1.954 1.938 2.93 4.229 2.93 6.873 0 2.643-.966 4.931-2.897 6.861-1.931 1.932-4.299 2.897-7.104 2.897-2.819 0-5.206-.991-7.158-2.973-1.529-1.513-2.468-3.473-2.82-5.882l3.832-1.388c.236 2.306.889 3.987 1.961 5.044 1.174 1.176 2.569 1.763 4.185 1.763 1.63 0 3.051-.606 4.263-1.817 1.211-1.213 1.817-2.713 1.817-4.505 0-1.791-.595-3.283-1.784-4.472-1.205-1.189-2.615-2.122-4.229-2.798" fill="#4a7750"/><path d="m72.8825 94.1599c-2.277-.748-4.105-1.813-5.486-3.194-1.38-1.381-2.071-3.047-2.071-5.001 0-1.908.716-3.586 2.148-5.033 1.432-1.446 3.213-2.17 5.342-2.17 2.1 0 3.899.742 5.397 2.225.778.764 1.389 1.836 1.829 3.216l-3.569 1.388c-.44-1.19-.837-1.96-1.189-2.313-.72-.734-1.542-1.101-2.468-1.101-.911 0-1.721.355-2.433 1.068-.713.713-1.07 1.62-1.07 2.72 0 1.088.368 2.013 1.103 2.776.763.735 1.805 1.41 3.127 2.027 2.526.822 4.641 2.085 6.344 3.789 1.954 1.938 2.93 4.229 2.93 6.873 0 2.643-.966 4.931-2.897 6.861-1.931 1.932-4.299 2.897-7.104 2.897-2.819 0-5.206-.991-7.158-2.973-1.529-1.513-2.468-3.473-2.82-5.882l3.832-1.388c.236 2.306.889 3.987 1.961 5.044 1.174 1.176 2.569 1.763 4.185 1.763 1.63 0 3.051-.606 4.263-1.817 1.211-1.213 1.817-2.713 1.817-4.505 0-1.791-.595-3.283-1.784-4.472-1.205-1.189-2.615-2.122-4.229-2.798z" stroke="#4a7750" stroke-width="2"/><path d="m106.2031 82.1767c-3.379 0-6.3 1.237-8.768 3.712-2.467 2.475-3.7 5.489-3.7 9.043 0 3.584 1.233 6.609 3.7 9.075 2.468 2.468 5.389 3.701 8.768 3.701 3.393 0 6.323-1.233 8.79-3.701 2.467-2.466 3.701-5.491 3.701-9.075 0-3.554-1.234-6.568-3.701-9.043s-5.397-3.712-8.79-3.712m11.709 1.322c3.193 3.202 4.79 7.012 4.79 11.433 0 4.449-1.597 8.272-4.79 11.466-3.196 3.194-7.098 4.79-11.709 4.79-4.597 0-8.492-1.596-11.686-4.79-3.195-3.194-4.792-7.017-4.792-11.466 0-4.421 1.597-8.231 4.792-11.433 3.194-3.201 7.089-4.803 11.686-4.803 4.611 0 8.513 1.602 11.709 4.803" fill="#4a7750"/><path d="m106.2031 82.1767c-3.379 0-6.3 1.237-8.768 3.712-2.467 2.475-3.7 5.489-3.7 9.043 0 3.584 1.233 6.609 3.7 9.075 2.468 2.468 5.389 3.701 8.768 3.701 3.393 0 6.323-1.233 8.79-3.701 2.467-2.466 3.701-5.491 3.701-9.075 0-3.554-1.234-6.568-3.701-9.043s-5.397-3.712-8.79-3.712zm11.709 1.322c3.193 3.202 4.79 7.012 4.79 11.433 0 4.449-1.597 8.272-4.79 11.466-3.196 3.194-7.098 4.79-11.709 4.79-4.597 0-8.492-1.596-11.686-4.79-3.195-3.194-4.792-7.017-4.792-11.466 0-4.421 1.597-8.231 4.792-11.433 3.194-3.201 7.089-4.803 11.686-4.803 4.611 0 8.513 1.602 11.709 4.803z" stroke="#4a7750" stroke-width="2"/><path d="m130.8671 110.8357v-31.699h3.987v28.241h11.389v3.458z" fill="#4a7750"/><path d="m130.8671 110.8357v-31.699h3.987v28.241h11.389v3.458z" stroke="#4a7750" stroke-width="2"/><path d="m168.0871 94.2258-3.04-8.414-3.063 8.414zm-1.299-15.089 11.476 31.699h-4.141l-4.78-13.173h-8.614l-4.867 13.173h-4.164l11.63-31.699z" fill="#4a7750"/><path d="m168.0871 94.2258-3.04-8.414-3.063 8.414zm-1.299-15.089 11.476 31.699h-4.141l-4.78-13.173h-8.614l-4.867 13.173h-4.164l11.63-31.699z" stroke="#4a7750" stroke-width="2"/><path d="m189.1156 82.6168v14.364h3.922c1.85 0 3.464-.687 4.846-2.061 1.38-1.372 2.07-3.087 2.07-5.143 0-2.042-.69-3.746-2.07-5.111-1.382-1.365-2.996-2.049-4.846-2.049zm3.723 17.844h-3.723v10.375h-3.987v-31.699h9.076c2.643.352 4.852 1.425 6.63 3.216 2.072 2.071 3.106 4.546 3.106 7.424 0 2.893-1.065 5.405-3.194 7.533-1.41 1.426-2.659 2.269-3.744 2.534l7.115 10.992h-4.605z" fill="#4a7750"/><path d="m189.1156 82.6168v14.364h3.922c1.85 0 3.464-.687 4.846-2.061 1.38-1.372 2.07-3.087 2.07-5.143 0-2.042-.69-3.746-2.07-5.111-1.382-1.365-2.996-2.049-4.846-2.049zm3.723 17.844h-3.723v10.375h-3.987v-31.699h9.076c2.643.352 4.852 1.425 6.63 3.216 2.072 2.071 3.106 4.546 3.106 7.424 0 2.893-1.065 5.405-3.194 7.533-1.41 1.426-2.659 2.269-3.744 2.534l7.115 10.992h-4.605z" stroke="#4a7750" stroke-width="2"/><path d="m235.4938 79.1365-8.371 12.116 13.701 19.583h-4.648l-11.411-16.323-2.07 2.974v13.349h-3.988v-31.699h3.988v11.719l8.172-11.719z" fill="#fff"/><path d="m235.4938 79.1365-8.371 12.116 13.701 19.583h-4.648l-11.411-16.323-2.07 2.974v13.349h-3.988v-31.699h3.988v11.719l8.172-11.719z" stroke="#fff" stroke-width="2"/><path d="m247.534 110.836h3.988v-31.699h-3.988z" fill="#fff" mask="url(#b)"/><path d="m247.534 110.836h3.988v-31.699h-3.988z" mask="url(#b)" stroke="#fff" stroke-width="2"/><path d="m270.7881 82.595v28.241h-3.965v-28.241h-7.578v-3.459h19.099v3.459z" fill="#fff" mask="url(#b)"/><path d="m270.7881 82.595v28.241h-3.965v-28.241h-7.578v-3.459h19.099v3.459z" mask="url(#b)" stroke="#fff" stroke-width="2"/><path d="m298.1399 94.2258-3.04-8.414-3.062 8.414zm-1.301-15.089 11.478 31.699h-4.142l-4.78-13.173h-8.613l-4.869 13.173h-4.162l11.63-31.699z" fill="#fff" mask="url(#b)"/><path d="m298.1399 94.2258-3.04-8.414-3.062 8.414zm-1.301-15.089 11.478 31.699h-4.142l-4.78-13.173h-8.613l-4.869 13.173h-4.162l11.63-31.699z" mask="url(#b)" stroke="#fff" stroke-width="2"/><text fill="#231f20" font-family="LucidaGrande, Lucida Grande" font-size="9" letter-spacing=".52" mask="url(#b)"><tspan x="125.0156" y="48.010391">POWERED </tspan><tspan letter-spacing=".385" x="173.876772" y="48.010391">B</tspan> <tspan x="179.43853" y="48.010391">Y</tspan></text></g></svg>